<svg width="144" height="73" viewBox="0 0 144 73" fill="none" xmlns="http://www.w3.org/2000/svg">
<path fill-rule="evenodd" clip-rule="evenodd" d="M93.5551 21.4964C93.7891 20.2272 94.0592 18.958 94.5723 17.7607C96.4356 18.1748 98.245 18.7959 100.072 19.345C105.077 20.8483 110.046 22.4416 114.988 24.1429C119.597 25.7272 124.008 27.7706 128.203 30.2731C131.83 32.4425 135.161 34.9809 137.78 38.3386C141.345 42.9024 142.596 48.0514 142.02 53.8035C141.363 60.3657 137.717 64.6955 132.208 67.7471C127.914 70.1325 123.225 71.3027 118.418 72.0679C111.72 73.1301 104.978 73.1571 98.236 72.779C92.979 72.4909 87.758 71.8698 82.5731 70.9697C81.0608 70.7086 79.5305 70.5106 78.4053 70.1595C79.7195 70.2495 81.3848 70.3845 83.0591 70.4746C89.9814 70.8526 96.8857 70.7896 103.745 69.7274C109.524 68.8273 115.15 67.396 120.236 64.3264C122.91 62.7151 125.223 60.7257 126.807 57.9802C128.689 54.7126 128.923 51.247 128.023 47.6553C126.645 42.1463 123.225 38.0955 118.832 34.7379C113.593 30.7232 107.787 27.7076 101.801 24.9801C99.0821 23.7469 96.3276 22.6126 93.5641 21.4964H93.5551Z" fill="#3A8BA5"/>
<path fill-rule="evenodd" clip-rule="evenodd" d="M85.2915 15.0695C85.0125 16.0957 84.7694 17.1489 84.4814 18.1751C81.3488 17.0499 77.8741 15.9157 74.6876 14.9435C70.6548 13.7103 66.6131 12.54 62.5713 11.3338C61.2481 10.9377 59.8978 10.6857 58.6016 10.1906C58.8806 10.0106 59.2047 10.0826 59.5017 10.0826C61.3651 10.0826 63.2374 10.1096 65.1008 10.1276C65.9829 10.5687 66.9641 10.6497 67.9093 10.8567C71.4289 11.6219 74.9306 12.477 78.4233 13.3412C80.6197 13.8813 83.0771 14.5204 85.2735 15.0695H85.2915Z" fill="#3A8BA5"/>
<path fill-rule="evenodd" clip-rule="evenodd" d="M58.6083 10.1899C57.6541 10.1719 56.6909 10.1359 55.7367 10.1359C40.875 10.1359 26.0222 10.1359 11.1604 10.1359C10.5663 10.1359 10.3803 9.86284 10.6023 9.31673C11.7725 6.4452 12.9608 3.58267 14.104 0.70213C14.311 0.171031 14.5541 0 15.1302 0C30.325 0.0180034 45.5198 0.0180038 60.7057 0.0180038H143.278C142.981 0.80115 142.711 1.53028 142.432 2.25942C141.505 4.66287 140.56 7.05731 139.668 9.47876C139.479 9.99186 139.254 10.1629 138.705 10.1539C134.402 10.1269 130.091 10.1539 125.788 10.1269C125.248 10.1269 125.005 10.2529 124.87 10.802C123.681 15.4919 122.439 20.1818 121.251 24.8716C121.08 25.5648 120.855 25.6458 120.216 25.3847C117.542 24.2955 114.851 23.2603 112.159 22.2251C111.691 22.0451 111.574 21.8651 111.718 21.343C112.717 17.8863 113.681 14.4117 114.653 10.946C114.878 10.1449 114.869 10.1359 114.068 10.1359C104.256 10.1359 94.4529 10.1359 84.6411 10.1359C78.1329 10.1359 71.6247 10.1359 65.1165 10.1359C63.2531 10.1179 61.3808 10.0999 59.5174 10.0909C59.2204 10.0909 58.8963 10.0099 58.6173 10.1989L58.6083 10.1899Z" fill="#34548A"/>
<path fill-rule="evenodd" clip-rule="evenodd" d="M102.853 52.9211C104.149 48.3123 105.409 43.8204 106.678 39.3196C107.506 36.3581 108.362 33.4055 109.172 30.435C109.316 29.9129 109.442 29.9039 109.847 30.2009C112.34 31.9652 114.852 33.7026 117.372 35.4399C117.741 35.6919 117.849 35.899 117.714 36.3671C116.193 41.7051 114.708 47.0611 113.213 52.4081C113.132 52.6871 113.096 52.9392 112.682 52.9392C109.433 52.9212 106.183 52.9392 102.853 52.9392V52.9211Z" fill="#34548A"/>
<path d="M0 52.8765L10.2529 14.1963H23.4494C27.122 14.1963 29.4715 14.2413 30.4977 14.3313C32.5231 14.4933 34.3324 14.8174 35.9257 15.3035C37.519 15.7986 38.9683 16.4827 40.2645 17.3739C41.5697 18.265 42.695 19.3272 43.6401 20.5785C44.5853 21.8297 45.3144 23.27 45.8275 24.8903C46.3406 26.5196 46.5927 28.3019 46.5927 30.2373C46.5927 34.4051 45.5845 38.1047 43.5681 41.3363C41.5517 44.5679 39.0223 47.1244 35.9707 49.0238C33.6303 50.5001 30.6147 51.5893 26.924 52.2914C24.8266 52.6785 21.613 52.8765 17.2742 52.8765H0.00899673H0ZM11.7202 46.6473H16.8331C20.5328 46.6473 23.2063 46.4673 24.8626 46.1072C26.5189 45.7472 28.0402 45.072 29.4175 44.0909C31.3979 42.6686 33.0722 40.7692 34.4314 38.3928C35.7907 36.0164 36.4658 33.2168 36.4658 30.0032C36.4658 27.2577 35.9077 25.1963 34.7825 23.8191C33.6573 22.4418 32.271 21.5237 30.6237 21.0646C29.4625 20.7495 27.4101 20.5875 24.4486 20.5875H18.6065L11.7292 46.6563L11.7202 46.6473Z" fill="#34548A"/>
<path d="M79.781 35.5835H60.8415L56.2686 52.8667H46.1777L56.4306 14.1865H66.4855L62.5428 29.1203H81.4823L85.461 14.1865H95.5159L85.299 52.8667H75.2081L79.781 35.5835Z" fill="#34548A"/>
<path d="M0.425781 55.2917H3.07197C3.66871 55.2917 4.1236 55.3374 4.43664 55.4287C4.8573 55.5526 5.21762 55.7727 5.51762 56.089C5.81762 56.4053 6.04588 56.7933 6.2024 57.2531C6.35892 57.7096 6.43718 58.2738 6.43718 58.9455C6.43718 59.5357 6.36381 60.0444 6.21708 60.4716C6.03773 60.9933 5.78175 61.4156 5.44914 61.7384C5.19806 61.983 4.85893 62.1738 4.43175 62.3107C4.11219 62.4118 3.68501 62.4624 3.15023 62.4624H0.425781V55.2917ZM1.8736 56.5048V61.2542H2.95458C3.35893 61.2542 3.65078 61.2314 3.83012 61.1857C4.0649 61.127 4.25893 61.0276 4.41219 60.8874C4.56871 60.7471 4.69588 60.5172 4.79371 60.1977C4.89153 59.8749 4.94045 59.4363 4.94045 58.8819C4.94045 58.3276 4.89153 57.902 4.79371 57.6053C4.69588 57.3086 4.55893 57.077 4.38284 56.9107C4.20675 56.7444 3.98338 56.6319 3.71273 56.5732C3.51056 56.5276 3.11436 56.5048 2.52415 56.5048H1.8736Z" fill="#3A8BA5"/>
<path d="M7.66979 62.4624V55.2917H12.9866V56.5048H9.11761V58.0944H12.7176V59.3026H9.11761V61.2542H13.1236V62.4624H7.66979Z" fill="#3A8BA5"/>
<path d="M14.3317 62.4624V55.2917H16.4986L17.7997 60.183L19.0861 55.2917H21.2578V62.4624H19.9127V56.8178L18.4893 62.4624H17.0953L15.6768 56.8178V62.4624H14.3317Z" fill="#3A8BA5"/>
<path d="M29.1621 62.4624H27.5871L26.9611 60.8336H24.0948L23.5029 62.4624H21.967L24.76 55.2917H26.291L29.1621 62.4624ZM26.4964 59.6254L25.5083 56.9645L24.5399 59.6254H26.4964Z" fill="#3A8BA5"/>
<path d="M29.9399 62.4624V55.2917H32.9871C33.7534 55.2917 34.3094 55.3569 34.6551 55.4874C35.004 55.6145 35.2828 55.8428 35.4915 56.1721C35.7002 56.5015 35.8045 56.8781 35.8045 57.302C35.8045 57.8401 35.6464 58.2852 35.3301 58.6374C35.0138 58.9863 34.5409 59.2064 33.9116 59.2977C34.2246 59.4803 34.4822 59.6808 34.6844 59.8993C34.8899 60.1178 35.1654 60.5058 35.511 61.0634L36.3866 62.4624H34.6551L33.6083 60.902C33.2366 60.3444 32.9822 59.9939 32.8453 59.8504C32.7083 59.7037 32.5632 59.6042 32.41 59.552C32.2567 59.4966 32.0138 59.4689 31.6812 59.4689H31.3877V62.4624H29.9399ZM31.3877 58.3243H32.4589C33.1534 58.3243 33.5871 58.295 33.76 58.2363C33.9328 58.1776 34.0681 58.0765 34.1659 57.933C34.2638 57.7895 34.3127 57.6102 34.3127 57.395C34.3127 57.1537 34.2475 56.9596 34.117 56.8129C33.9898 56.6629 33.8089 56.5683 33.5741 56.5292C33.4567 56.5129 33.1045 56.5048 32.5176 56.5048H31.3877V58.3243Z" fill="#3A8BA5"/>
<path d="M43.6404 62.4624H42.0654L41.4393 60.8336H38.573L37.9811 62.4624H36.4453L39.2382 55.2917H40.7692L43.6404 62.4624ZM40.9746 59.6254L39.9866 56.9645L39.0181 59.6254H40.9746Z" fill="#3A8BA5"/>
<path d="M45.3768 62.4624V59.4444L42.7502 55.2917H44.4474L46.1349 58.1287L47.7882 55.2917H49.4561L46.8197 59.4542V62.4624H45.3768Z" fill="#3A8BA5"/>
<path d="M52.7822 62.4624V55.2917H54.23V58.114H57.067V55.2917H58.5148V62.4624H57.067V59.327H54.23V62.4624H52.7822Z" fill="#3A8BA5"/>
<path d="M66.4827 62.4624H64.9077L64.2816 60.8336H61.4153L60.8235 62.4624H59.2876L62.0806 55.2917H63.6115L66.4827 62.4624ZM63.817 59.6254L62.8289 56.9645L61.8604 59.6254H63.817Z" fill="#3A8BA5"/>
<path d="M67.2604 62.4624V55.2917H70.3077C71.074 55.2917 71.63 55.3569 71.9756 55.4874C72.3246 55.6145 72.6034 55.8428 72.8121 56.1721C73.0208 56.5015 73.1251 56.8781 73.1251 57.302C73.1251 57.8401 72.967 58.2852 72.6507 58.6374C72.3343 58.9863 71.8615 59.2064 71.2322 59.2977C71.5452 59.4803 71.8028 59.6808 72.005 59.8993C72.2104 60.1178 72.486 60.5058 72.8316 61.0634L73.7072 62.4624H71.9756L70.9289 60.902C70.5572 60.3444 70.3028 59.9939 70.1659 59.8504C70.0289 59.7037 69.8838 59.6042 69.7305 59.552C69.5773 59.4966 69.3344 59.4689 69.0017 59.4689H68.7083V62.4624H67.2604ZM68.7083 58.3243H69.7795C70.474 58.3243 70.9077 58.295 71.0805 58.2363C71.2534 58.1776 71.3887 58.0765 71.4865 57.933C71.5844 57.7895 71.6333 57.6102 71.6333 57.395C71.6333 57.1537 71.568 56.9596 71.4376 56.8129C71.3104 56.6629 71.1295 56.5683 70.8947 56.5292C70.7773 56.5129 70.4251 56.5048 69.8382 56.5048H68.7083V58.3243Z" fill="#3A8BA5"/>
<path d="M76.1381 62.4624L73.5751 55.2917H75.1452L76.9599 60.5988L78.7159 55.2917H80.2517L77.6838 62.4624H76.1381Z" fill="#3A8BA5"/>
<path d="M80.9903 62.4624V55.2917H86.3071V56.5048H82.4381V58.0944H86.0381V59.3026H82.4381V61.2542H86.4441V62.4624H80.9903Z" fill="#3A8BA5"/>
<path d="M87.305 60.1292L88.7137 59.9923C88.7984 60.4651 88.9696 60.8124 89.2272 61.0341C89.4881 61.2558 89.8387 61.3667 90.2789 61.3667C90.7452 61.3667 91.0957 61.2689 91.3305 61.0732C91.5685 60.8743 91.6876 60.6428 91.6876 60.3787C91.6876 60.2091 91.637 60.0656 91.5359 59.9482C91.4381 59.8276 91.2653 59.7232 91.0175 59.6352C90.8479 59.5765 90.4615 59.4721 89.8582 59.3221C89.0821 59.1298 88.5376 58.8933 88.2245 58.6129C87.7843 58.2183 87.5642 57.7374 87.5642 57.17C87.5642 56.8048 87.6669 56.464 87.8724 56.1477C88.0811 55.8281 88.3794 55.5852 88.7675 55.4189C89.1588 55.2526 89.63 55.1694 90.1811 55.1694C91.081 55.1694 91.7577 55.3667 92.2109 55.7613C92.6674 56.1558 92.9071 56.6825 92.93 57.3412L91.4821 57.4048C91.4202 57.0363 91.2865 56.7721 91.081 56.6124C90.8789 56.4493 90.574 56.3678 90.1664 56.3678C89.7457 56.3678 89.4164 56.4542 89.1783 56.627C89.0251 56.7379 88.9484 56.8863 88.9484 57.0721C88.9484 57.2417 89.0202 57.3868 89.1637 57.5075C89.3463 57.6607 89.7897 57.8205 90.4941 57.9868C91.1984 58.1531 91.7185 58.3259 92.0544 58.5053C92.3935 58.6814 92.6577 58.9243 92.8468 59.2341C93.0392 59.5406 93.1354 59.9205 93.1354 60.3738C93.1354 60.7846 93.0213 61.1694 92.793 61.5281C92.5647 61.8868 92.2419 62.1542 91.8245 62.3303C91.4071 62.5031 90.887 62.5895 90.2642 62.5895C89.3577 62.5895 88.6615 62.3808 88.1756 61.9634C87.6898 61.5428 87.3995 60.9314 87.305 60.1292Z" fill="#3A8BA5"/>
<path d="M95.9674 62.4624V56.5048H93.8397V55.2917H99.5381V56.5048H97.4153V62.4624H95.9674Z" fill="#3A8BA5"/>
<path d="M100.433 62.4624V55.2917H101.881V62.4624H100.433Z" fill="#3A8BA5"/>
<path d="M103.28 62.4624V55.2917H104.689L107.623 60.0803V55.2917H108.969V62.4624H107.516L104.625 57.7863V62.4624H103.28Z" fill="#3A8BA5"/>
<path d="M113.84 59.8259V58.6178H116.961V61.4743C116.658 61.7678 116.217 62.027 115.64 62.252C115.066 62.4738 114.484 62.5846 113.894 62.5846C113.144 62.5846 112.49 62.4281 111.933 62.1151C111.375 61.7988 110.956 61.3488 110.676 60.7651C110.395 60.1781 110.255 59.5406 110.255 58.8526C110.255 58.1058 110.411 57.4423 110.724 56.8618C111.038 56.2814 111.496 55.8363 112.099 55.5265C112.559 55.2885 113.131 55.1694 113.816 55.1694C114.706 55.1694 115.401 55.3569 115.899 55.7319C116.402 56.1037 116.724 56.6189 116.868 57.2776L115.43 57.5466C115.329 57.1944 115.138 56.9173 114.858 56.7151C114.58 56.5096 114.233 56.4069 113.816 56.4069C113.183 56.4069 112.679 56.6075 112.304 57.0086C111.933 57.4096 111.747 58.0048 111.747 58.7939C111.747 59.645 111.936 60.2841 112.314 60.7113C112.692 61.1352 113.188 61.3471 113.801 61.3471C114.104 61.3471 114.408 61.2884 114.711 61.1711C115.017 61.0504 115.28 60.9053 115.498 60.7357V59.8259H113.84Z" fill="#3A8BA5"/>
<path d="M6.48194 71.8494L5.68498 72.8667C5.29431 72.676 4.91927 72.4135 4.55985 72.0791C4.2817 72.3291 3.98636 72.5135 3.67382 72.6323C3.36129 72.7511 2.98937 72.8104 2.55808 72.8104C1.70173 72.8104 1.05791 72.5698 0.626617 72.0885C0.292206 71.7166 0.125 71.2884 0.125 70.804C0.125 70.3633 0.256264 69.9679 0.518793 69.6179C0.781321 69.2647 1.17355 68.9585 1.69548 68.6991C1.46108 68.4209 1.2845 68.1568 1.16574 67.9068C1.04697 67.6536 0.987593 67.4145 0.987593 67.1895C0.987593 66.7738 1.15324 66.4222 1.48452 66.1347C1.81893 65.8441 2.29398 65.6987 2.90968 65.6987C3.50349 65.6987 3.9676 65.8503 4.30201 66.1535C4.63643 66.4566 4.80363 66.827 4.80363 67.2645C4.80363 67.5427 4.72081 67.8068 4.55517 68.0568C4.38952 68.3068 4.05511 68.5897 3.55193 68.9053L4.50829 70.1664C4.6208 69.9664 4.71768 69.7054 4.79894 69.3835L5.9897 69.6554C5.87093 70.0773 5.7678 70.3867 5.68029 70.5836C5.59278 70.7774 5.49902 70.9399 5.39901 71.0712C5.5459 71.2087 5.73498 71.3603 5.96626 71.5259C6.20066 71.6884 6.37255 71.7963 6.48194 71.8494ZM2.89561 68.1131L3.2519 67.8411C3.51443 67.638 3.64569 67.4364 3.64569 67.2364C3.64569 67.0676 3.58162 66.9239 3.45349 66.8051C3.32847 66.6863 3.15814 66.627 2.94249 66.627C2.73309 66.627 2.56901 66.6801 2.45025 66.7863C2.33149 66.8895 2.27211 67.0098 2.27211 67.1473C2.27211 67.3098 2.37212 67.5067 2.57214 67.738L2.89561 68.1131ZM2.37993 69.5429C2.07677 69.696 1.85019 69.8804 1.70017 70.0961C1.55015 70.3117 1.47515 70.5321 1.47515 70.7571C1.47515 71.0415 1.56734 71.2743 1.75174 71.4556C1.93926 71.6337 2.18929 71.7228 2.50182 71.7228C2.70809 71.7228 2.90655 71.6822 3.0972 71.6009C3.28784 71.5197 3.49568 71.3853 3.7207 71.1978L2.37993 69.5429Z" fill="#3A8BA5"/>
<path d="M11.559 72.6885V66.9786H9.51977V65.8159H14.9813V66.9786H12.9467V72.6885H11.559Z" fill="#3A8BA5"/>
<path d="M15.8861 72.6885V65.8159H18.8067C19.5412 65.8159 20.074 65.8784 20.4053 66.0035C20.7397 66.1253 21.0069 66.3441 21.207 66.6598C21.407 66.9754 21.507 67.3364 21.507 67.7427C21.507 68.2584 21.3554 68.685 21.0523 69.0225C20.7491 69.3569 20.2959 69.5679 19.6927 69.6554C19.9928 69.8304 20.2397 70.0226 20.4334 70.232C20.6303 70.4414 20.8944 70.8133 21.2257 71.3478L22.0649 72.6885H20.4053L19.4021 71.1931C19.0458 70.6586 18.802 70.3227 18.6708 70.1852C18.5395 70.0445 18.4004 69.9492 18.2535 69.8992C18.1066 69.8461 17.8738 69.8195 17.555 69.8195H17.2737V72.6885H15.8861ZM17.2737 68.7225H18.3004C18.9661 68.7225 19.3818 68.6944 19.5474 68.6381C19.7131 68.5819 19.8428 68.485 19.9365 68.3475C20.0303 68.2099 20.0772 68.038 20.0772 67.8318C20.0772 67.6005 20.0147 67.4145 19.8896 67.2739C19.7677 67.1301 19.5943 67.0395 19.3693 67.002C19.2568 66.9864 18.9192 66.9786 18.3567 66.9786H17.2737V68.7225Z" fill="#3A8BA5"/>
<path d="M22.8103 65.8159H24.1979V69.5382C24.1979 70.1289 24.2151 70.5118 24.2495 70.6868C24.3089 70.9681 24.4495 71.1946 24.6714 71.3665C24.8964 71.5353 25.2027 71.6197 25.5903 71.6197C25.984 71.6197 26.281 71.54 26.481 71.3806C26.681 71.2181 26.8013 71.0196 26.842 70.7852C26.8826 70.5508 26.9029 70.1617 26.9029 69.6179V65.8159H28.2905V69.4257C28.2905 70.2508 28.253 70.8337 28.178 71.1743C28.103 71.515 27.9639 71.8025 27.7608 72.0369C27.5608 72.2713 27.292 72.4588 26.9545 72.5995C26.6169 72.737 26.1763 72.8057 25.6324 72.8057C24.9761 72.8057 24.4776 72.7307 24.137 72.5807C23.7994 72.4276 23.5322 72.2307 23.3353 71.99C23.1384 71.7463 23.0087 71.4915 22.9462 71.2259C22.8556 70.8321 22.8103 70.2508 22.8103 69.482V65.8159Z" fill="#3A8BA5"/>
<path d="M34.1552 70.1617L35.5007 70.5883C35.2944 71.3384 34.9506 71.8963 34.4693 72.2619C33.9912 72.6245 33.3833 72.8057 32.6457 72.8057C31.7331 72.8057 30.983 72.4948 30.3955 71.8728C29.8079 71.2478 29.5141 70.3946 29.5141 69.3132C29.5141 68.1693 29.8095 67.2817 30.4001 66.6504C30.9908 66.016 31.7675 65.6987 32.7301 65.6987C33.5708 65.6987 34.2537 65.9472 34.7787 66.4441C35.0913 66.7379 35.3257 67.1598 35.4819 67.7099L34.1084 68.038C34.0271 67.6818 33.8568 67.4005 33.5974 67.1942C33.3411 66.9879 33.0286 66.8848 32.6598 66.8848C32.1503 66.8848 31.7362 67.0676 31.4174 67.4333C31.1018 67.799 30.944 68.3912 30.944 69.21C30.944 70.0789 31.1002 70.6977 31.4128 71.0665C31.7253 71.4353 32.1316 71.6197 32.6316 71.6197C33.0004 71.6197 33.3177 71.5025 33.5833 71.2681C33.849 71.0337 34.0396 70.6649 34.1552 70.1617Z" fill="#3A8BA5"/>
<path d="M36.7149 72.6885V65.8159H38.1025V68.8678L40.906 65.8159H42.7718L40.184 68.4928L42.9124 72.6885H41.1169L39.2277 69.4632L38.1025 70.6118V72.6885H36.7149Z" fill="#3A8BA5"/>
<path d="M43.5922 72.6885V65.8159H44.9799V72.6885H43.5922Z" fill="#3A8BA5"/>
<path d="M46.3206 72.6885V65.8159H47.6708L50.4836 70.4055V65.8159H51.7728V72.6885H50.3804L47.6098 68.2068V72.6885H46.3206Z" fill="#3A8BA5"/>
<path d="M56.442 70.1617V69.0038H59.433V71.7416C59.1423 72.0229 58.7204 72.2713 58.1672 72.487C57.6172 72.6995 57.0593 72.8057 56.4936 72.8057C55.7748 72.8057 55.1481 72.6557 54.6137 72.3557C54.0793 72.0525 53.6777 71.6212 53.4089 71.0618C53.1401 70.4992 53.0057 69.8882 53.0057 69.2288C53.0057 68.5131 53.1557 67.8771 53.4558 67.3208C53.7558 66.7645 54.1949 66.3379 54.7731 66.041C55.2138 65.8128 55.7623 65.6987 56.4186 65.6987C57.2718 65.6987 57.9375 65.8784 58.4157 66.2379C58.897 66.5941 59.2064 67.0879 59.3439 67.7193L57.9656 67.9771C57.8687 67.6396 57.6859 67.3739 57.4171 67.1801C57.1515 66.9832 56.8186 66.8848 56.4186 66.8848C55.8123 66.8848 55.3294 67.077 54.97 67.4614C54.6137 67.8458 54.4356 68.4162 54.4356 69.1725C54.4356 69.9883 54.6168 70.6008 54.9794 71.0102C55.3419 71.4165 55.817 71.6197 56.4045 71.6197C56.6952 71.6197 56.9858 71.5634 57.2765 71.4509C57.5703 71.3353 57.8219 71.1962 58.0313 71.0337V70.1617H56.442Z" fill="#3A8BA5"/>
<path d="M63.4272 72.6885V65.8722H64.8148V71.5306H68.2652V72.6885H63.4272Z" fill="#3A8BA5"/>
<path d="M69.2965 72.6885V65.8722H70.6842V71.5306H74.1346V72.6885H69.2965Z" fill="#3A8BA5"/>
<path d="M79.5258 70.1617L80.8712 70.5883C80.665 71.3384 80.3212 71.8963 79.8399 72.2619C79.3617 72.6245 78.7538 72.8057 78.0162 72.8057C77.1036 72.8057 76.3536 72.4948 75.766 71.8728C75.1784 71.2478 74.8846 70.3946 74.8846 69.3132C74.8846 68.1693 75.18 67.2817 75.7707 66.6504C76.3614 66.016 77.138 65.6987 78.1006 65.6987C78.9413 65.6987 79.6242 65.9472 80.1493 66.4441C80.4618 66.7379 80.6962 67.1598 80.8525 67.7099L79.4789 68.038C79.3976 67.6818 79.2273 67.4005 78.9679 67.1942C78.7116 66.9879 78.3991 66.8848 78.0303 66.8848C77.5209 66.8848 77.1068 67.0676 76.788 67.4333C76.4723 67.799 76.3145 68.3912 76.3145 69.21C76.3145 70.0789 76.4708 70.6977 76.7833 71.0665C77.0958 71.4353 77.5021 71.6197 78.0022 71.6197C78.371 71.6197 78.6882 71.5025 78.9538 71.2681C79.2195 71.0337 79.4101 70.6649 79.5258 70.1617Z" fill="#3A8BA5"/>
</svg>
