<svg width="108" height="100" viewBox="0 0 108 100" fill="none" xmlns="http://www.w3.org/2000/svg">
<path d="M57.2567 75.5892C56.3447 75.5892 55.6052 74.8497 55.6052 73.9376C55.6052 71.2012 53.387 68.983 50.6506 68.983C49.7385 68.983 48.999 68.2435 48.999 67.3315C48.999 66.4194 49.7385 65.6799 50.6506 65.6799C55.2088 65.6853 58.9029 69.3794 58.9082 73.9376C58.9082 74.8497 58.169 75.5892 57.2567 75.5892Z" fill="#31558C"/>
<path d="M69.2925 41.7491C67.9995 40.4658 65.9132 40.4658 64.6202 41.7491C64.0034 42.3606 63.6555 43.1927 63.6541 44.0612V40.7582C63.652 39.8895 63.3036 39.0573 62.6863 38.446C61.3917 37.1663 59.3087 37.1663 58.0141 38.446C57.3972 39.0575 57.0494 39.8897 57.0479 40.7582C57.0459 39.8895 56.6974 39.0573 56.0801 38.446C54.7855 37.1663 52.7025 37.1663 51.4079 38.446C50.7911 39.0575 50.4432 39.8897 50.4418 40.7582C50.4397 39.8895 50.0913 39.0573 49.474 38.446C48.1794 37.1663 46.0964 37.1663 44.8018 38.446C44.1849 39.0575 43.8371 39.8897 43.8356 40.7582V52.3189C43.8336 51.4502 43.4851 50.618 42.8678 50.0068C41.5749 48.7235 39.4886 48.7235 38.1956 50.0068C37.5788 50.6183 37.2309 51.4504 37.2295 52.3189V63.9061C37.2272 68.1369 38.906 72.1952 41.8967 75.1878L45.4839 78.7749L45.6953 87.1499H67.1653L66.9572 80.4264C69.104 77.4663 70.26 73.9031 70.2603 70.2464V44.0662C70.2594 43.1956 69.9112 42.3614 69.2925 41.7491Z" fill="#FFC482"/>
<path d="M50.7278 31.2404L53.0812 33.5955C53.6977 34.2105 54.5342 34.5542 55.4049 34.5501C57.2258 34.542 58.7 33.0678 58.708 31.247C58.7124 30.3766 58.3686 29.5405 57.7534 28.9249L52.6535 23.9158C49.6628 20.9251 45.6064 19.2451 41.3768 19.2453H36.3049L31.1851 14.1255L16.0059 29.3097L19.9547 33.2586C20.53 36.8701 22.2324 40.2072 24.8185 42.7929L40.2356 58.1192C40.8514 58.7341 41.6873 59.0777 42.5576 59.0737C44.3793 59.0673 45.8543 57.5923 45.8607 55.7707C45.8661 54.9005 45.523 54.0642 44.9078 53.4486" fill="#EABA8F"/>
<path d="M76.9092 12.3501L72.45 16.8175C68.8387 17.3924 65.5016 19.0942 62.9157 21.6796L44.397 40.1934C43.782 40.8092 43.4385 41.6451 43.4424 42.5154C43.4496 44.3367 44.9243 45.8113 46.7455 45.8185C47.6159 45.8224 48.4517 45.4789 49.0676 44.8639L46.7323 47.1992C46.1171 47.8156 45.7734 48.6521 45.7777 49.5229C45.7884 51.3427 47.261 52.8153 49.0808 52.826C49.9515 52.8303 50.788 52.4866 51.4045 51.8714C50.7895 52.4872 50.446 53.3231 50.4499 54.1935C50.4598 56.0137 51.9328 57.4866 53.753 57.4965C54.6233 57.5005 55.4592 57.1569 56.075 56.5419C55.46 57.1578 55.1165 57.9936 55.1204 58.864C55.1303 60.6842 56.6033 62.1572 58.4235 62.1671C59.2937 62.172 60.1298 61.8289 60.7456 61.2141L71.2758 50.6839L68.9207 53.039C68.3057 53.6549 67.9622 54.4907 67.9661 55.3611C67.9733 57.1823 69.4479 58.6569 71.2692 58.6642C72.14 58.6685 72.9765 58.3248 73.5929 57.7096L81.7862 49.5163C84.7769 46.5256 86.4569 42.4692 86.4567 38.2396V33.1677L92.0934 27.5294L76.9092 12.3501ZM50.1444 43.7888L49.8273 44.1042L50.1444 43.7888Z" fill="#FFC482"/>
<path d="M42.3926 83.8468H70.4687V97.0591H42.3926V83.8468Z" fill="white"/>
<path d="M35.3468 13.5242L15.4939 33.3771L6.15137 24.0346L26.0043 4.18164L35.3468 13.5242Z" fill="#577DB6"/>
<path d="M92.5053 32.1167L72.6523 12.2638L81.9949 2.92126L101.848 22.7742L92.5053 32.1167Z" fill="white"/>
<path d="M50.6506 65.6799C49.7385 65.6799 48.999 66.4194 48.999 67.3315C48.999 68.2435 49.7385 68.983 50.6506 68.983C53.387 68.983 55.6052 71.2012 55.6052 73.9376C55.6052 74.8497 56.3447 75.5892 57.2567 75.5892C58.1688 75.5892 58.9082 74.8497 58.9082 73.9376C58.9029 69.3792 55.209 65.6853 50.6506 65.6799Z" fill="#31558C"/>
<path d="M83.1624 1.75383C82.5071 1.1343 81.4824 1.1343 80.8271 1.75383L71.4844 11.0966C70.8396 11.7415 70.8396 12.7869 71.4844 13.4319L72.652 14.5995L71.8543 15.3988C68.0969 16.0966 64.6406 17.9216 61.9451 20.6309L56.8732 25.7127L54.0309 22.8704C50.7371 19.5589 46.2555 17.7027 41.5849 17.7159H37.1984L35.3454 15.8646L36.5147 14.6969C37.1594 14.052 37.1594 13.0066 36.5147 12.3617L27.1703 3.01396C26.5254 2.36924 25.48 2.36924 24.835 3.01396L4.98354 22.8654C4.33882 23.5104 4.33882 24.5558 4.98354 25.2007L14.3246 34.5435C14.9692 35.1888 16.015 35.1894 16.6603 34.5447C16.6607 34.5443 16.6612 34.5439 16.6616 34.5435L17.8292 33.3758L18.6269 34.1752C19.3265 37.932 21.1511 41.3879 23.859 44.0844L35.7864 56.0052V64.0284C35.7738 68.6987 37.6305 73.18 40.9425 76.4727L44.0441 79.576V82.1953H42.3925C41.4805 82.1953 40.741 82.9348 40.741 83.8468V97.0591C40.741 97.9712 41.4805 98.7107 42.3925 98.7107H70.4687C71.3807 98.7107 72.1202 97.9712 72.1202 97.0591V83.8468C72.1202 82.9348 71.3807 82.1953 70.4687 82.1953H68.8171V81.0656C70.9765 77.9151 72.1283 74.1833 72.1202 70.3637V60.3719C73.1972 60.2443 74.2003 59.7594 74.9691 58.9945L83.1624 50.8012C86.4527 47.4938 88.3055 43.0221 88.3185 38.3569V33.9704L90.1699 32.1174L91.3375 33.2866C91.9824 33.9314 93.0279 33.9314 93.6728 33.2866L103.016 23.9439C103.661 23.2994 103.661 22.2536 103.017 21.6082C103.016 21.6078 103.016 21.6074 103.016 21.607L83.1624 1.75383ZM16.6616 29.8729L15.4956 31.0406L8.48645 24.0331L26.0027 6.51687L33.0101 13.5243L31.8441 14.6903L16.6616 29.8729ZM26.1942 41.7425C23.8491 39.4075 22.3086 36.386 21.7962 33.1165C21.7413 32.7724 21.5788 32.4545 21.3321 32.2082L20.1645 31.0406L26.5873 24.6177L33.0101 18.1949L35.3471 20.5302C35.6567 20.8398 36.0766 21.0141 36.5147 21.0141H41.5849C45.3791 21.0031 49.0199 22.5108 51.6956 25.2007L54.5379 28.0447L52.201 30.3799L49.3587 27.5376C48.7138 26.8909 47.6669 26.8894 47.0201 27.5343C46.3733 28.1793 46.3719 29.2261 47.0168 29.8729L49.8591 32.7152L43.4313 39.143C42.5026 40.0683 41.9848 41.3282 41.9945 42.6393C42.0083 44.6168 43.1904 46.399 45.0069 47.181C44.3855 48.2236 44.1818 49.4626 44.4371 50.6493L39.3653 45.5774C38.7317 44.9213 37.6861 44.9032 37.03 45.5367C36.3739 46.1703 36.3557 47.2159 36.9893 47.872C37.0025 47.8858 37.0161 47.8993 37.03 47.9127L43.4957 54.3784C43.8025 54.6844 43.9722 55.1014 43.9664 55.5345C43.9574 56.4468 43.2173 57.1825 42.305 57.1861C41.8713 57.2135 41.4489 57.0407 41.1588 56.717L26.1942 41.7425ZM68.8171 95.4076H44.0441V85.4984H68.8171V95.4076ZM68.8171 70.3637C68.8244 73.6732 67.7781 76.8992 65.8295 79.5743C65.6247 79.8561 65.5143 80.1955 65.5141 80.5438V82.1953H47.3471V78.8922C47.3471 78.4542 47.1729 78.0342 46.8632 77.7246L43.2777 74.1374C40.5876 71.4624 39.0793 67.8222 39.0894 64.0284V59.262C39.9782 60.042 41.1177 60.4763 42.3 60.4858H42.3265C45.0573 60.4722 47.2674 58.262 47.2811 55.5312C47.2747 55.0095 47.1855 54.4922 47.0168 53.9986C47.6419 54.3303 48.3317 54.5219 49.0383 54.5601C49.1748 57.081 51.1849 59.0963 53.7056 59.2389C53.8484 61.8585 56.0037 63.9155 58.6271 63.9359H58.6453C59.9504 63.9413 61.2033 63.4231 62.1234 62.4974L67.0252 57.5874C67.4216 58.4222 68.0419 59.1307 68.8171 59.6336V70.3637ZM85.4977 32.1174C85.188 32.427 85.0138 32.8469 85.0138 33.285V38.3569C85.0026 42.1465 83.4976 45.7789 80.8255 48.4659L72.6322 56.6592C72.3297 56.9621 71.9189 57.1316 71.491 57.1299C70.583 57.12 69.8493 56.3863 69.8394 55.4784C69.8337 55.0453 70.0033 54.6282 70.3101 54.3223L70.3184 54.3124L78.5034 46.129C79.137 45.4729 79.119 44.4273 78.4629 43.7937C77.823 43.1756 76.8083 43.1756 76.1681 43.7937L70.3299 49.6319L67.9848 51.9771L59.8014 60.1605C59.4985 60.4635 59.0871 60.633 58.6585 60.6312C57.7502 60.6223 57.0159 59.888 57.007 58.9796C57.0012 58.5465 57.1709 58.1295 57.4777 57.8236L68.0062 47.295C68.6398 46.6389 68.6218 45.5933 67.9658 44.9597C67.3258 44.3416 66.3111 44.3416 65.6709 44.9597L55.1424 55.4883C54.84 55.7911 54.4291 55.9606 54.0012 55.959C53.0935 55.9482 52.3604 55.2152 52.3496 54.3074C52.3445 53.8745 52.5142 53.4577 52.8203 53.1513L63.3505 42.6228C64.0066 41.989 64.0248 40.9436 63.391 40.2875C62.7572 39.6314 61.7118 39.6133 61.0557 40.2471C61.0419 40.2603 61.0285 40.2739 61.0153 40.2875L50.4454 50.8161C50.1438 51.1187 49.7332 51.2878 49.3059 51.2851H49.296C48.3876 51.2762 47.6533 50.5419 47.6444 49.6336C47.6434 49.2044 47.8127 48.7921 48.1151 48.4874L58.6437 37.9572C59.2886 37.311 59.2873 36.2644 58.6412 35.6194C57.995 34.9745 56.9484 34.9758 56.3034 35.6219L49.1886 42.7367L48.1134 43.8136C47.8106 44.1158 47.4 44.2853 46.9722 44.2842C46.0639 44.2754 45.3296 43.541 45.3207 42.6327C45.3143 42.1998 45.4836 41.7828 45.7897 41.4766L64.3035 22.9645C66.6385 20.6189 69.6598 19.0781 72.9295 18.5648C73.273 18.5095 73.5903 18.347 73.8362 18.1008L75.0038 16.9331L87.8511 29.7804L85.4977 32.1174ZM92.5035 29.7821L74.9873 12.2642L81.9947 5.25675L99.5126 22.7746L92.5035 29.7821Z" fill="#31558C"/>
<path d="M50.6506 65.6799C49.7385 65.6799 48.999 66.4194 48.999 67.3315C48.999 68.2435 49.7385 68.983 50.6506 68.983C53.387 68.983 55.6052 71.2012 55.6052 73.9376C55.6052 74.8497 56.3447 75.5892 57.2567 75.5892C58.1688 75.5892 58.9082 74.8497 58.9082 73.9376C58.9029 69.3792 55.209 65.6853 50.6506 65.6799Z" fill="#31558C"/>
<path d="M37.9958 46.9845L44.4599 53.4486C45.0749 54.0644 45.4184 54.9003 45.4145 55.7707C45.4073 57.5919 43.9327 59.0665 42.1114 59.0737C41.2411 59.0777 40.4052 58.7341 39.7894 58.1191L24.8165 43.148C22.2311 40.5621 20.5294 37.2249 19.9544 33.6136L17.6191 31.2783L32.8001 16.0974L36.3046 19.602H41.3765C45.6061 19.6018 49.6625 21.2818 52.6532 24.2725L56.3147 27.934L37.9958 46.9845Z" fill="#FFC482"/>
<path d="M83.1624 1.75383C82.5071 1.1343 81.4824 1.1343 80.8271 1.75383L71.4844 11.0966C70.8396 11.7415 70.8396 12.7869 71.4844 13.4319L72.652 14.5995L71.8543 15.3988C68.0968 16.0966 64.6406 17.9216 61.9451 20.6309L56.8732 25.7127L54.0309 22.8704C50.7371 19.5591 46.2555 17.7029 41.5849 17.7159H37.1968L35.3454 15.8646L36.513 14.6969C37.1578 14.052 37.1578 13.0066 36.513 12.3617L27.1703 3.01396C26.5254 2.36924 25.4799 2.36924 24.835 3.01396L4.98354 22.8654C4.33882 23.5104 4.33882 24.5558 4.98354 25.2007L14.3246 34.5435C14.9696 35.1882 16.015 35.1882 16.6599 34.5435L17.8275 33.3758L18.6269 34.1752C19.3265 37.932 21.1511 41.3879 23.859 44.0844L35.7864 56.0052V64.0284C35.773 68.6989 37.6299 73.1804 40.9425 76.4727L44.0441 79.576V82.1953H42.3925C41.4805 82.1953 40.741 82.9348 40.741 83.8468V97.0591C40.741 97.9712 41.4805 98.7107 42.3925 98.7107H70.4687C71.3807 98.7107 72.1202 97.9712 72.1202 97.0591V83.8468C72.1202 82.9348 71.3807 82.1953 70.4687 82.1953H68.8171V81.0656C70.9765 77.9151 72.1283 74.1833 72.1202 70.3637V60.3719C73.1972 60.2443 74.2003 59.7594 74.9691 58.9945L83.1624 50.8012C86.4527 47.4938 88.3055 43.0221 88.3185 38.3569V33.9704L90.1699 32.1174L91.3375 33.2866C91.9824 33.9314 93.0278 33.9314 93.6728 33.2866L103.016 23.9439C103.661 23.2994 103.661 22.2535 103.017 21.6082L103.016 21.607L83.1624 1.75383ZM16.6599 29.8729L15.4923 31.0406L8.48645 24.0331L26.0027 6.51687L33.0101 13.5243L31.8441 14.6903L16.6599 29.8729ZM26.1942 41.7425C23.8491 39.4075 22.3086 36.386 21.7962 33.1165C21.7413 32.7724 21.5788 32.4545 21.3321 32.2082L20.1645 31.0406L26.5873 24.6177L33.0101 18.1949L35.3454 20.5302C35.6551 20.8398 36.075 21.0141 36.513 21.0141H41.5849C45.3791 21.0031 49.0199 22.5108 51.6956 25.2007L54.5379 28.0447L52.201 30.3799L49.3587 27.5376C48.7138 26.8909 47.6669 26.8894 47.0201 27.5343C46.3733 28.1793 46.3719 29.2261 47.0168 29.8729L49.8591 32.7152L43.4313 39.143C42.5026 40.0683 41.9848 41.3282 41.9945 42.6393C42.0077 44.6166 43.1892 46.3988 45.0053 47.181C44.3851 48.224 44.1822 49.4628 44.4371 50.6493L39.3653 45.5774C38.7317 44.9213 37.6861 44.9032 37.03 45.5367C36.3739 46.1703 36.3557 47.2159 36.9893 47.872C37.0025 47.8858 37.0161 47.8992 37.03 47.9127L43.4957 54.3784C43.8019 54.6848 43.9716 55.1016 43.9664 55.5345C43.9574 56.4468 43.2173 57.1825 42.305 57.1861C41.8713 57.2135 41.4489 57.0407 41.1588 56.717L26.1942 41.7425ZM68.8171 95.4076H44.0441V85.4984H68.8171V95.4076ZM68.8171 70.3637C68.8246 73.6736 67.7777 76.8996 65.8278 79.5743C65.6237 79.8563 65.5138 80.1957 65.514 80.5438V82.1953H47.3471V78.8922C47.3471 78.4542 47.1729 78.0342 46.8632 77.7246L43.2777 74.1374C40.5876 71.4624 39.0793 67.8222 39.0894 64.0284V59.262C39.978 60.0422 41.1175 60.4765 42.3 60.4858H42.3265C45.0573 60.4722 47.2674 58.262 47.2811 55.5312C47.2751 55.0093 47.1853 54.492 47.0152 53.9986C47.6409 54.3301 48.3312 54.5217 49.0383 54.5601C49.1748 57.0804 51.1841 59.0954 53.7039 59.2389C53.8478 61.8587 56.0035 63.9155 58.6271 63.9359H58.6453C59.9504 63.9413 61.2033 63.4231 62.1234 62.4974L67.0252 57.5874C67.4216 58.4222 68.0419 59.1307 68.8171 59.6336V70.3637ZM85.4977 32.1174C85.188 32.427 85.0138 32.8469 85.0138 33.285V38.3569C85.0026 42.1465 83.4976 45.7789 80.8255 48.4659L72.6322 56.6592C72.3297 56.9621 71.9189 57.1316 71.491 57.1299C70.5826 57.121 69.8483 56.3867 69.8394 55.4784C69.8339 55.0457 70.0029 54.6289 70.3085 54.3223L70.3184 54.3124L78.5034 46.129C79.137 45.4729 79.119 44.4273 78.4629 43.7937C77.823 43.1756 76.8083 43.1756 76.1681 43.7937L70.3299 49.6319L67.9848 51.9771L59.8014 60.1605C59.4985 60.4635 59.0871 60.633 58.6585 60.6312C57.7506 60.6213 57.0169 59.8876 57.007 58.9796C57.0024 58.5465 57.1728 58.1297 57.4793 57.8236L68.0079 47.295C68.6414 46.6389 68.6235 45.5933 67.9674 44.9597C67.3274 44.3416 66.3128 44.3416 65.6726 44.9597L55.144 55.4883C54.8416 55.7911 54.4308 55.9606 54.0028 55.959C53.0951 55.9482 52.362 55.2152 52.3513 54.3074C52.3455 53.8743 52.5152 53.4573 52.822 53.1513L63.3522 42.6228C63.9971 41.9775 63.9967 40.9316 63.3514 40.2867C62.706 39.6418 61.6602 39.6422 61.0153 40.2875L50.4454 50.8161C50.1438 51.1187 49.7332 51.2878 49.3059 51.2851H49.296C48.3876 51.2762 47.6533 50.5419 47.6444 49.6336C47.6434 49.2044 47.8127 48.7921 48.1151 48.4874L58.6437 37.9572C59.2886 37.311 59.2873 36.2644 58.6412 35.6194C57.995 34.9745 56.9483 34.9758 56.3034 35.6219L49.1886 42.7367L48.1134 43.8135C47.8106 44.1158 47.4 44.2853 46.9722 44.2842C46.0639 44.2754 45.3296 43.541 45.3207 42.6327C45.3143 42.1998 45.4836 41.7828 45.7897 41.4766L64.3035 22.9645C66.6381 20.6194 69.6588 19.0783 72.9278 18.5648C73.2719 18.5099 73.5899 18.3475 73.8362 18.1008L75.0038 16.9331L87.8511 29.7804L85.4977 32.1174ZM92.5035 29.7821L74.9873 12.2642L81.9947 5.25675L99.5126 22.7746L92.5035 29.7821Z" fill="#31558C"/>
</svg>
