<svg width="108" height="100" viewBox="0 0 108 100" fill="none" xmlns="http://www.w3.org/2000/svg">
<g clip-path="url(#clip0_4832_48800)">
<path d="M21.8828 64.5172L23.1253 64.6586L23.2768 64.6758L23.879 64.7443L24.2646 65.2119C24.2778 65.2279 24.2957 65.2493 24.3167 65.2744C24.3804 65.3504 24.4723 65.4602 24.5467 65.5559C24.7085 65.7637 24.8704 65.9716 25.0323 66.1795C26.2822 67.7848 27.5346 69.3931 28.7771 71.0108L28.7791 71.0135C29.0738 71.3989 29.2943 71.8358 29.4292 72.3019L29.4316 72.3101L29.4339 72.3184C30.5685 76.4112 31.7007 80.5036 32.8305 84.5958L32.8306 84.5961C33.1399 85.7172 33.4481 86.8375 33.7562 87.9572C34.418 90.3623 35.0791 92.7648 35.7478 95.1667C36.4453 97.6711 39.1658 98.738 41.3051 97.4485C42.7181 96.5946 43.3957 94.9282 42.9331 93.233C42.0513 90.0282 41.165 86.8214 40.2784 83.6136C39.0514 79.1739 37.8238 74.7324 36.6071 70.292C36.2559 69.0113 35.9507 68.0668 35.3309 67.302L35.301 67.2652L35.2735 67.2265C35.1391 67.0373 35.0308 66.831 34.9516 66.6131C33.0675 62.0592 31.1903 57.5012 29.32 52.9389L29.3175 52.9327C29.1675 52.5623 29.1639 52.2111 29.1814 51.9869C29.2004 51.7456 29.255 51.5147 29.3286 51.3138L29.3297 51.3109C29.4505 50.9837 29.59 50.6512 29.7136 50.3567C29.7509 50.2677 29.7869 50.1821 29.8203 50.1012C29.9745 49.7289 30.0977 49.4094 30.1854 49.1001C30.7747 47.0202 31.3381 44.9375 31.9043 42.8445C32.1268 42.0218 32.3498 41.1974 32.575 40.3711C32.8165 39.4823 33.0602 38.5965 33.326 37.6301L33.4216 37.2825L34.6452 32.8339L36.2716 37.1515C36.2949 37.2132 36.3188 37.2756 36.3426 37.3375C36.401 37.4896 36.4585 37.6394 36.5033 37.7731L36.5037 37.7742C36.6092 38.0899 36.7085 38.3944 36.8057 38.6926C36.9912 39.2615 37.1693 39.8075 37.3692 40.3649L37.3694 40.3652C37.6275 41.0854 37.9677 41.524 38.4674 41.7922L38.468 41.7925C40.4963 42.8825 42.519 43.9736 44.5407 45.0642C47.344 46.5764 50.1452 48.0874 52.9562 49.5926L52.9565 49.5928C53.6481 49.9633 54.3192 49.9619 55.0224 49.5853C59.8549 46.9956 64.679 44.3908 69.4946 41.7709C69.6199 41.7027 69.7043 41.6223 69.8952 41.4405C69.9039 41.4322 69.9128 41.4237 69.922 41.415C69.4338 39.5535 68.9507 37.6903 68.4691 35.8281C68.2202 36.5707 67.9699 37.3133 67.7172 38.0545L67.7146 38.062C67.5264 38.6045 67.1589 39.0666 66.6728 39.3721L66.633 39.3971L66.5918 39.4196C64.3339 40.6484 62.0669 41.873 59.8019 43.0966C58.224 43.9489 56.6471 44.8008 55.0749 45.6532C54.7988 45.8053 54.4277 45.9515 53.9751 45.9498C53.5232 45.948 53.1565 45.7992 52.8929 45.6561C51.3355 44.8117 49.7731 43.9678 48.2093 43.1232C45.9543 41.9053 43.6966 40.6859 41.4474 39.4611L41.4229 39.4478L41.399 39.4336C40.8665 39.1175 40.4585 38.6284 40.2431 38.0478L40.2352 38.0264L40.2279 38.0046C39.6387 36.2546 39.0581 34.5098 38.4785 32.7681C37.5191 29.8849 36.5625 27.0101 35.5747 24.1346L35.574 24.1327C35.27 23.2439 34.8506 22.3988 34.3265 21.6191C31.8687 18.0072 27.199 16.8296 23.637 18.7721L21.8828 64.5172ZM21.8828 64.5172L21.5202 65.714C21.1538 66.9234 20.7879 68.1303 20.4227 69.3349L20.4219 69.3376C20.3442 69.5955 20.2713 69.8986 20.2134 70.1393C20.1904 70.235 20.1697 70.3208 20.1521 70.3901C20.0754 70.6909 20.0101 70.887 19.9353 71.0355L19.935 71.036C16.1722 78.5121 12.3913 85.9784 8.59226 93.4351L8.59125 93.437C7.8689 94.8601 6.41442 95.6373 4.92749 95.4923L4.92251 95.4918C4.17673 95.4215 3.46951 95.1279 2.89334 94.6492C2.31717 94.1705 1.89889 93.529 1.69319 92.8088L1.69278 92.8073C1.4147 91.8373 1.52469 90.9149 2.01732 89.9449M21.8828 64.5172L2.01732 89.9449M2.01732 89.9449C2.97744 88.0548 3.93088 86.1653 4.88331 84.2778C7.12274 79.8398 9.35649 75.4131 11.6578 71.0163L11.6581 71.0158C12.722 68.9811 13.2172 66.9272 13.3439 64.7206C13.4966 62.1174 13.7074 59.5302 13.9196 56.9249C14.0174 55.7247 14.1154 54.5205 14.2083 53.3092L14.2086 53.3053C14.2176 53.184 14.2275 52.9867 14.2049 52.7672C14.1846 52.5692 14.1242 52.1998 13.8815 51.8394L13.8805 51.838C13.1723 50.7893 12.9472 49.5502 12.6637 47.9283L2.01732 89.9449ZM12.9284 44.4529L12.9282 44.4534C12.593 45.6743 12.4712 46.8257 12.6636 47.9281L12.9284 44.4529ZM12.9284 44.4529C13.4428 42.5764 13.9462 40.7039 14.4485 38.8355C15.628 34.4477 16.8015 30.0828 18.0969 25.7426L18.0969 25.7425M12.9284 44.4529L18.0969 25.7425M18.0969 25.7425C19.0011 22.7121 20.8469 20.2967 23.6368 18.7722L18.0969 25.7425ZM36.9933 23.6473C36.6463 22.6329 36.1675 21.6685 35.5691 20.779L36.9933 23.6473ZM36.9933 23.6473C37.9829 26.5277 38.9442 29.4167 39.9057 32.3061C40.4848 34.0465 41.064 35.787 41.6495 37.526L36.9933 23.6473ZM70.0174 41.7785C70.0174 41.7786 70.0171 41.7774 70.0165 41.7749C70.0171 41.7772 70.0174 41.7784 70.0174 41.7785Z" fill="#577DB6" stroke="#31558C" stroke-width="3"/>
<path d="M89.7479 25.0286L92.7038 26.4422C93.0579 26.6116 93.3949 26.7743 93.721 26.9318C94.4339 27.276 95.0949 27.5952 95.7691 27.9035L95.7694 27.9037C96.1014 28.0555 96.4204 28.2785 96.6783 28.6079C96.9276 28.9266 97.0547 29.2626 97.1292 29.5399L97.1293 29.5402C97.5927 31.2669 98.0647 32.9904 98.5381 34.7186C98.6835 35.2493 98.8289 35.7804 98.9743 36.3122L98.9749 36.3145C99.6359 38.747 100.302 41.1783 100.974 43.6085C101.259 44.6366 102.032 45.1006 102.8 45.0253L89.7479 25.0286ZM89.7479 25.0286L90.6094 28.1899C90.7253 28.615 90.8394 29.0336 90.9521 29.4473C91.3221 30.8051 91.6777 32.1098 92.0337 33.4144L92.0339 33.4149L95.0437 44.4281L95.0437 44.4283C95.5265 46.194 95.4801 47.9321 94.9324 49.7153L94.9308 49.7207C94.8945 49.8403 94.8605 49.9541 94.8281 50.0624C94.5836 50.8798 94.4306 51.391 94.0956 51.8457L94.0927 51.8497C93.7688 52.2923 93.7506 52.7661 93.7469 52.9216C93.7425 53.1076 93.7636 53.3142 93.7652 53.3339L95.2605 53.2163L93.765 53.3314C93.8612 54.5808 93.9627 55.8229 94.064 57.0609C94.2937 59.8711 94.5218 62.6599 94.681 65.4638L94.681 65.4646C94.7937 67.4311 95.3678 69.1373 96.214 70.7782L89.7479 25.0286ZM104.286 42.6597L104.286 42.6591C103.8 40.8762 103.308 39.0901 102.816 37.3017C101.9 33.9735 100.981 30.6376 100.095 27.3014C99.8481 26.3721 99.3596 25.8067 98.4939 25.3941C98.2838 25.294 98.0736 25.1938 97.8633 25.0937C95.8624 24.1407 93.8536 23.184 91.8571 22.2047L104.286 42.6597ZM104.286 42.6597C104.643 43.9675 103.917 44.9158 102.8 45.0253L104.286 42.6597ZM96.2142 70.7787C99.0371 76.2576 101.816 81.7558 104.598 87.2616C105.047 88.1502 105.496 89.0389 105.946 89.9278C106.351 90.7303 106.495 91.4434 106.448 92.0801C106.402 92.7109 106.162 93.3683 105.638 94.0568L105.636 94.0594C103.999 96.2165 100.68 95.9395 99.3944 93.4428L99.3942 93.4426C97.9343 90.6088 96.4972 87.7641 95.0574 84.9141C94.603 84.0145 94.1483 83.1144 93.6925 82.214L93.692 82.2129C93.2376 81.317 92.7829 80.4223 92.3286 79.5281C90.9141 76.7448 89.5028 73.9674 88.1129 71.1781C87.964 70.879 87.8878 70.5965 87.7775 70.1883C87.7242 69.9907 87.6629 69.7636 87.5815 69.491L87.5812 69.49C87.3136 68.5949 87.0526 67.7001 86.7776 66.7574C86.6694 66.3865 86.5591 66.0082 86.4453 65.6196L85.7096 63.1061L83.9138 65.0125C83.8272 65.1044 83.7714 65.1606 83.7036 65.2307C83.6431 65.2934 83.5568 65.3833 83.4694 65.493L83.4648 65.4988L83.4602 65.5047C82.0075 67.3666 80.5597 69.2306 79.1166 71.0967L79.1115 71.1033L79.1065 71.1099C78.8574 71.4397 78.6725 71.8133 78.5617 72.2113L78.5611 72.2134C76.4667 79.7733 74.3783 87.3333 72.296 94.8932L72.2955 94.8952C72.0534 95.7787 71.6956 96.432 71.2483 96.9006C70.8106 97.3592 70.2243 97.7077 69.4044 97.8946C66.6639 98.5183 64.2724 96.0313 65.0166 93.2887C66.2432 88.7795 67.4907 84.2774 68.7393 79.771C69.2375 77.973 69.736 76.1743 70.2333 74.3741L96.2142 70.7787ZM72.1718 68.1361C72.2652 67.9531 72.3681 67.7513 72.481 67.5196L70.2333 74.374C70.3722 73.8717 70.506 73.3763 70.6385 72.8859C70.9657 71.6748 71.2847 70.4939 71.6508 69.3124L71.6513 69.3107C71.7717 68.9206 71.9432 68.5845 72.1718 68.1361ZM75.9927 59.3901C76.8621 57.2818 77.7307 55.1753 78.5953 53.0912L72.481 67.5195C72.5424 67.3934 72.612 67.2732 72.7128 67.0993C72.731 67.0678 72.7502 67.0346 72.7706 66.9993C72.8897 66.7931 73.0467 66.5163 73.1762 66.2044C74.1133 63.9481 75.0534 61.668 75.9927 59.3901ZM78.5955 53.0908C78.7345 52.7563 78.8035 52.4038 78.7822 52.0298C78.7626 51.6853 78.669 51.3966 78.5999 51.2052L78.5992 51.2033C78.5393 51.0382 78.4797 50.8752 78.4209 50.7141C78.0325 49.6505 77.6726 48.665 77.4127 47.6548L77.4119 47.6517C75.5184 40.3559 73.6422 33.0551 71.829 25.7488L71.8289 25.7484C71.7486 25.4252 71.8278 24.9434 72.016 24.0594C72.4976 21.81 73.7464 20.1902 75.7955 19.1725L75.7955 19.1725C78.3646 17.8963 80.8428 17.377 83.4145 18.1615C83.9867 18.3389 84.5439 18.5614 85.0808 18.827L85.0859 18.8295C86.1959 19.3734 87.3001 19.9288 88.412 20.488L88.4591 20.5116C89.584 21.0774 90.7167 21.6468 91.8569 22.2046L78.5955 53.0908Z" fill="#577DB6" stroke="#31558C" stroke-width="3"/>
<path d="M34.4515 13.791H34.452C37.6849 13.791 40.3292 11.1513 40.3314 7.95144V7.95114C40.3343 4.63974 37.715 2.00775 34.4659 1.99965C34.4659 1.99965 34.4658 1.99965 34.4657 1.99965L34.4515 13.791ZM34.4515 13.791C33.6759 13.7913 32.9079 13.6382 32.1916 13.3407C31.4753 13.0431 30.825 12.6069 30.2779 12.0571C29.7308 11.5074 29.2978 10.8549 29.0037 10.1372C28.7097 9.41945 28.5604 8.6507 28.5645 7.87511L28.5646 7.87511V7.86719C28.5646 4.64356 31.2231 1.99259 34.4656 1.99965L34.4515 13.791Z" fill="#FFC482" stroke="#31558C" stroke-width="3"/>
<path d="M67.6272 7.69218L67.6271 7.69227C67.5623 11.0291 70.1964 13.7743 73.5121 13.791L67.6272 7.69218ZM67.6272 7.69218C67.6865 4.62938 70.3889 1.96347 73.5456 2.005L67.6272 7.69218ZM73.5459 2.005C76.9958 2.05141 79.4882 4.86286 79.4218 8.12658L73.5459 2.005ZM79.4218 8.12691C79.3589 11.167 76.6821 13.806 73.5124 13.791L79.4218 8.12691Z" fill="#FFC482" stroke="#31558C" stroke-width="3"/>
<path d="M12.3844 23.995C10.6085 30.4681 8.83229 36.9412 7.05587 43.4143C6.88673 44.0306 6.64955 44.3975 6.4184 44.615C6.19961 44.821 5.90753 44.9686 5.47146 45.0175L5.47112 45.0175C4.2703 45.1525 3.33446 44.058 3.62468 42.9374L3.62481 42.9369C4.1905 40.7494 4.78933 38.5785 5.39183 36.3942C5.66422 35.4067 5.93736 34.4165 6.20853 33.4208L12.3844 23.995ZM12.3844 23.995C11.3023 24.513 10.2288 25.0316 9.15916 25.5696L9.14493 25.5768L9.13055 25.5836C8.83751 25.7233 8.57926 25.9265 8.37453 26.1784C8.1698 26.4303 8.02373 26.7246 7.94692 27.04L7.94436 27.0505L7.94164 27.061C7.56669 28.5094 7.16444 29.9611 6.76618 31.3983C6.57835 32.0762 6.39141 32.7508 6.20864 33.4204L12.3844 23.995Z" fill="#577DB6" stroke="#31558C" stroke-width="3"/>
</g>
<defs>
<clipPath id="clip0_4832_48800">
<rect width="108" height="100" fill="white"/>
</clipPath>
</defs>
</svg>
