<svg width="108" height="100" viewBox="0 0 108 100" fill="none" xmlns="http://www.w3.org/2000/svg">
<path d="M52.4528 93.3104V85.8999C48.1367 85.7191 43.9469 84.7803 39.9775 83.1014C35.6876 81.2869 31.8355 78.6899 28.5275 75.3821C25.2197 72.0743 22.6225 68.222 20.808 63.9321C19.1409 59.9903 18.2037 55.8313 18.0136 51.5469H11.2373C11.7497 74.1655 29.9063 92.5048 52.4528 93.3104V93.3104Z" fill="#3D8AA4"/>
<path d="M11.2773 48.4531H18.0057C18.1772 44.105 19.1175 39.8848 20.808 35.8876C22.6225 31.5978 25.2197 27.7457 28.5275 24.4377C31.8353 21.1299 35.6876 18.5327 39.9775 16.7182C43.947 15.0392 48.1367 14.1007 52.4528 13.9197V7.81824C30.2826 8.61024 12.3567 26.3558 11.2773 48.4531V48.4531Z" fill="#3D8AA4"/>
<path d="M96.7618 51.5469H89.9853C89.7953 55.8313 88.8579 59.9903 87.1907 63.9321C85.3762 68.222 82.7792 72.0741 79.4712 75.3821C76.1634 78.6899 72.3111 81.2871 68.0213 83.1016C64.0518 84.7805 59.8621 85.7193 55.5459 85.9001V93.3106C78.0926 92.5048 96.2492 74.1655 96.7618 51.5469V51.5469Z" fill="#3D8AA4"/>
<path d="M55.5469 7.81824V13.9199C59.863 14.1007 64.0528 15.0394 68.0222 16.7184C72.3121 18.5329 76.1642 21.1301 79.4722 24.4379C82.78 27.7457 85.3772 31.598 87.1917 35.8878C88.8822 39.885 89.8225 44.1052 89.994 48.4533H96.7224C95.643 26.3558 77.7171 8.61024 55.5469 7.81824V7.81824Z" fill="#3D8AA4"/>
<path d="M21.1035 48.4531H23.8363C24.6905 48.4531 25.3831 49.1458 25.3831 50C25.3831 50.8543 24.6905 51.5469 23.8363 51.5469H21.1114C21.9423 68.4343 35.5542 82.0174 52.4535 82.8029V80.1641C52.4535 79.3098 53.1461 78.6172 54.0003 78.6172C54.8546 78.6172 55.5472 79.3098 55.5472 80.1641V82.8029C72.4464 82.0174 86.0583 68.4345 86.8892 51.5469H84.1644C83.3101 51.5469 82.6175 50.8543 82.6175 50C82.6175 49.1458 83.3101 48.4531 84.1644 48.4531H86.8971C86.1546 31.4822 72.5064 17.8051 55.5472 17.017V19.836C55.5472 20.6902 54.8546 21.3828 54.0003 21.3828C53.1461 21.3828 52.4535 20.6902 52.4535 19.836V17.017C35.4943 17.8051 21.846 31.4822 21.1035 48.4531V48.4531ZM34.6095 29.0623C36.0703 27.6015 38.0126 26.7969 40.0785 26.7969C42.1443 26.7969 44.0866 27.6015 45.5474 29.0623C47.0083 30.5231 47.8128 32.4654 47.8128 34.5313C47.8128 36.5971 47.0083 38.5394 45.5474 40.0002C44.0866 41.4611 42.1443 42.2656 40.0785 42.2656C38.0126 42.2656 36.0703 41.4611 34.6095 40.0002C33.1486 38.5394 32.3441 36.5971 32.3441 34.5313C32.3441 32.4654 33.1486 30.5231 34.6095 29.0623ZM65.6019 76.2969C65.6019 77.1512 64.9093 77.8438 64.055 77.8438H43.9456C43.0914 77.8438 42.3988 77.1512 42.3988 76.2969V71.6563C42.3988 69.5904 43.2033 67.6481 44.6642 66.1873C46.125 64.7263 48.0673 63.9219 50.1331 63.9219H57.8675C59.9334 63.9219 61.8757 64.7265 63.3365 66.1873C64.7973 67.6481 65.6019 69.5902 65.6019 71.6563V76.2969ZM62.4532 29.0623C63.9141 27.6015 65.8563 26.7969 67.9222 26.7969C69.9881 26.7969 71.9303 27.6015 73.3912 29.0623C74.852 30.5231 75.6566 32.4654 75.6566 34.5313C75.6566 36.5971 74.852 38.5394 73.3912 40.0002C71.9303 41.4611 69.9881 42.2656 67.9222 42.2656C65.8563 42.2656 63.9141 41.4611 62.4532 40.0002C60.9924 38.5394 60.1878 36.5971 60.1878 34.5313C60.1878 32.4654 60.9924 30.5231 62.4532 29.0623ZM54.0003 46.1328C55.4905 46.1328 56.9162 46.5515 58.1434 47.333C58.2836 47.1673 58.431 47.0064 58.586 46.8514C60.0469 45.3905 61.9892 44.586 64.055 44.586H71.7894C73.8552 44.586 75.7975 45.3905 77.2584 46.8514C78.7192 48.3122 79.5238 50.2543 79.5238 52.3203V56.961C79.5238 57.8152 78.8311 58.5078 77.9769 58.5078H60.1892C59.9707 58.7979 59.7307 59.075 59.4695 59.3362C58.0085 60.797 56.0662 61.6016 54.0003 61.6016C51.9345 61.6016 49.9922 60.797 48.5313 59.3362C48.2701 59.0748 48.0302 58.7979 47.8117 58.5078H30.0238C29.1695 58.5078 28.4769 57.8152 28.4769 56.961V52.3203C28.4769 50.2545 29.2815 48.3122 30.7423 46.8514C32.2031 45.3905 34.1454 44.586 36.2113 44.586H43.9456C46.0115 44.586 47.9538 45.3905 49.4146 46.8514C49.5697 47.0064 49.717 47.1675 49.8572 47.333C51.0845 46.5515 52.5103 46.1328 54.0003 46.1328V46.1328Z" fill="white"/>
<path d="M101.953 48.4531H99.8198C99.575 43.0072 98.382 37.7207 96.2628 32.71C95.113 29.9918 93.6901 27.3702 92.0336 24.918C90.3929 22.4896 88.5088 20.206 86.4335 18.1307C84.3582 16.0556 82.0748 14.1713 79.6462 12.5308C77.194 10.8741 74.5725 9.45119 71.8542 8.30147C66.6708 6.10916 61.192 4.90801 55.5469 4.72258V2.04688C55.5469 1.19261 54.8543 0.5 54 0.5C53.1457 0.5 52.4531 1.19261 52.4531 2.04688V4.72239C46.808 4.90782 41.3292 6.10897 36.1456 8.30147C33.4273 9.45119 30.8058 10.8741 28.3536 12.5308C25.9252 14.1715 23.6416 16.0556 21.5663 18.1307C19.4912 20.206 17.6069 22.4896 15.9664 24.918C14.3097 27.3702 12.8868 29.9918 11.7372 32.71C9.61784 37.7207 8.425 43.0072 8.18021 48.4531H6.04688C5.19261 48.4531 4.5 49.1457 4.5 50C4.5 50.8543 5.19261 51.5469 6.04688 51.5469H8.14308C8.26471 57.3914 9.47185 63.0626 11.7372 68.4186C12.887 71.1369 14.3099 73.7585 15.9664 76.2106C17.6071 78.639 19.4912 80.9226 21.5663 82.9979C23.6414 85.0733 25.9252 86.9574 28.3536 88.598C30.8058 90.2547 33.4273 91.6776 36.1456 92.8272C41.3292 95.0197 46.8078 96.2208 52.4531 96.4062V97.9531C52.4531 98.8074 53.1457 99.5 54 99.5C54.8543 99.5 55.5469 98.8074 55.5469 97.9531V96.4062C61.192 96.2208 66.6708 95.0197 71.8544 92.8272C74.5727 91.6775 77.1942 90.2545 79.6464 88.598C82.0748 86.9574 84.3584 85.0733 86.4337 82.9979C88.509 80.9226 90.3931 78.6392 92.0338 76.2106C93.6905 73.7585 95.1134 71.1369 96.2629 68.4186C98.5283 63.0626 99.7355 57.3914 99.8571 51.5469H101.953C102.807 51.5469 103.5 50.8543 103.5 50C103.5 49.1457 102.807 48.4531 101.953 48.4531V48.4531ZM54 21.3828C54.8543 21.3828 55.5469 20.6902 55.5469 19.8359V17.017C72.506 17.8051 86.1543 31.4822 86.8968 48.4531H84.1641C83.3098 48.4531 82.6172 49.1457 82.6172 50C82.6172 50.8543 83.3098 51.5469 84.1641 51.5469H86.8889C86.058 68.4343 72.4461 82.0174 55.5469 82.8028V80.1641C55.5469 79.3098 54.8543 78.6172 54 78.6172C53.1457 78.6172 52.4531 79.3098 52.4531 80.1641V82.8028C35.5539 82.0174 21.942 68.4343 21.1111 51.5469H23.8359C24.6902 51.5469 25.3828 50.8543 25.3828 50C25.3828 49.1457 24.6902 48.4531 23.8359 48.4531H21.1032C21.8457 31.4822 35.494 17.8051 52.4531 17.017V19.8359C52.4531 20.6902 53.1457 21.3828 54 21.3828ZM52.4531 13.9197C48.137 14.1005 43.9472 15.0393 39.9778 16.7182C35.6879 18.5327 31.8358 21.1299 28.5278 24.4375C25.22 27.7453 22.6228 31.5976 20.8083 35.8875C19.1178 39.8846 18.1775 44.1051 18.006 48.4531H11.2776C12.357 26.3558 30.2829 8.61027 52.4531 7.81827V13.9197ZM18.0139 51.5469C18.204 55.8313 19.1412 59.9903 20.8085 63.9321C22.623 68.222 25.2202 72.0741 28.528 75.3821C31.8358 78.6899 35.6881 81.2871 39.978 83.1016C43.9474 84.7805 48.1372 85.7193 52.4533 85.9001V93.3106C29.9066 92.5048 11.75 74.1655 11.2376 51.5469H18.0139ZM55.5469 85.9001C59.863 85.7193 64.0528 84.7805 68.0222 83.1016C72.3121 81.2871 76.1642 78.6899 79.4722 75.3823C82.78 72.0745 85.3772 68.2222 87.1917 63.9323C88.859 59.9905 89.7962 55.8315 89.9863 51.5471H96.7626C96.25 74.1655 78.0934 92.5048 55.5469 93.3104V85.9001ZM89.994 48.4531C89.8225 44.1051 88.8822 39.8848 87.1917 35.8877C85.3772 31.5978 82.7802 27.7457 79.4722 24.4377C76.1644 21.1299 72.3121 18.5327 68.0222 16.7182C64.0528 15.0393 59.863 14.1007 55.5469 13.9197V7.81827C77.7171 8.61027 95.643 26.3558 96.7224 48.4531H89.994Z" fill="#31558C"/>
<path d="M57.8672 67.0156H50.1328C47.5739 67.0156 45.4922 69.0973 45.4922 71.6562V74.75H62.5078V71.6562C62.5078 69.0973 60.4261 67.0156 57.8672 67.0156Z" fill="#3D8AA4"/>
<path d="M57.8672 63.9219H50.1328C48.067 63.9219 46.1247 64.7264 44.6638 66.1873C43.203 67.6481 42.3984 69.5904 42.3984 71.6562V76.2969C42.3984 77.1511 43.0911 77.8438 43.9453 77.8438H64.0547C64.9089 77.8438 65.6016 77.1511 65.6016 76.2969V71.6562C65.6016 69.5904 64.797 67.6481 63.3362 66.1873C61.8753 64.7263 59.9332 63.9219 57.8672 63.9219ZM62.5078 74.75H45.4922V71.6562C45.4922 69.0973 47.5739 67.0156 50.1328 67.0156H57.8672C60.4261 67.0156 62.5078 69.0973 62.5078 71.6562V74.75Z" fill="#31558C"/>
<path d="M46.2656 53.8672C46.2656 52.2816 46.7401 50.769 47.6209 49.4909C46.7716 48.3901 45.44 47.6797 43.9453 47.6797H36.2109C33.652 47.6797 31.5703 49.7614 31.5703 52.3203V55.4141H46.4197C46.318 54.9104 46.2656 54.3927 46.2656 53.8672Z" fill="#3D8AA4"/>
<path d="M49.4143 46.8513C47.9535 45.3905 46.0112 44.5859 43.9453 44.5859H36.2109C34.1451 44.5859 32.2028 45.3905 30.742 46.8513C29.2811 48.3122 28.4766 50.2545 28.4766 52.3203V56.9609C28.4766 57.8152 29.1692 58.5078 30.0234 58.5078H47.8111C48.0296 58.7979 48.2696 59.0749 48.5308 59.3362C49.9919 60.797 51.9341 61.6016 54 61.6016C56.0659 61.6016 58.0081 60.797 59.469 59.3362C59.7304 59.0747 59.9702 58.7979 60.1887 58.5078H77.9766C78.8308 58.5078 79.5234 57.8152 79.5234 56.9609V52.3203C79.5234 50.2545 78.7189 48.3122 77.258 46.8513C75.7972 45.3905 73.8549 44.5859 71.7891 44.5859H64.0547C61.9888 44.5859 60.0465 45.3905 58.5857 46.8513C58.4306 47.0064 58.2833 47.1675 58.1431 47.333C56.9159 46.5514 55.4902 46.1328 54 46.1328C52.51 46.1328 51.0841 46.5514 49.8571 47.333C49.7169 47.1673 49.5696 47.0064 49.4143 46.8513V46.8513ZM76.4297 52.3203V55.4141H61.5803C61.682 54.9104 61.7344 54.3927 61.7344 53.8672C61.7344 52.2816 61.2601 50.769 60.3791 49.4909C61.2284 48.3901 62.56 47.6797 64.0547 47.6797H71.7891C74.348 47.6797 76.4297 49.7614 76.4297 52.3203ZM58.6406 53.8672C58.6406 56.4261 56.5589 58.5078 54 58.5078C51.4411 58.5078 49.3594 56.4261 49.3594 53.8672C49.3594 51.3083 51.4411 49.2266 54 49.2266C56.5589 49.2266 58.6406 51.3083 58.6406 53.8672ZM31.5703 52.3203C31.5703 49.7614 33.652 47.6797 36.2109 47.6797H43.9453C45.44 47.6797 46.7716 48.3901 47.6209 49.4909C46.7401 50.769 46.2656 52.2814 46.2656 53.8672C46.2656 54.3927 46.318 54.9104 46.4197 55.4141H31.5703V52.3203Z" fill="#31558C"/>
<path d="M60.3789 49.4909C61.2599 50.769 61.7342 52.2814 61.7342 53.8672C61.7342 54.3927 61.6818 54.9104 61.5801 55.4141H76.4295V52.3203C76.4295 49.7614 74.3478 47.6797 71.7889 47.6797H64.0545C62.5598 47.6797 61.2281 48.3901 60.3789 49.4909Z" fill="#3D8AA4"/>
<path d="M67.9219 39.1719C70.4848 39.1719 72.5625 37.0942 72.5625 34.5312C72.5625 31.9683 70.4848 29.8906 67.9219 29.8906C65.3589 29.8906 63.2812 31.9683 63.2812 34.5312C63.2812 37.0942 65.3589 39.1719 67.9219 39.1719Z" fill="#FFC482"/>
<path d="M67.9219 42.2656C69.9877 42.2656 71.93 41.4611 73.3909 40.0002C74.8517 38.5394 75.6562 36.5971 75.6562 34.5312C75.6562 32.4654 74.8517 30.5231 73.3909 29.0623C71.93 27.6014 69.9877 26.7969 67.9219 26.7969C65.856 26.7969 63.9137 27.6014 62.4529 29.0623C60.9921 30.5231 60.1875 32.4654 60.1875 34.5312C60.1875 36.5971 60.9921 38.5394 62.4529 40.0002C63.9137 41.4611 65.856 42.2656 67.9219 42.2656ZM67.9219 29.8906C70.4808 29.8906 72.5625 31.9723 72.5625 34.5312C72.5625 37.0902 70.4808 39.1719 67.9219 39.1719C65.363 39.1719 63.2812 37.0902 63.2812 34.5312C63.2812 31.9723 65.363 29.8906 67.9219 29.8906Z" fill="#31558C"/>
<path d="M40.0781 39.1719C42.6411 39.1719 44.7188 37.0942 44.7188 34.5312C44.7188 31.9683 42.6411 29.8906 40.0781 29.8906C37.5152 29.8906 35.4375 31.9683 35.4375 34.5312C35.4375 37.0942 37.5152 39.1719 40.0781 39.1719Z" fill="#FFC482"/>
<path d="M40.0781 42.2656C42.144 42.2656 44.0863 41.4611 45.5471 40.0002C47.0079 38.5394 47.8125 36.5971 47.8125 34.5312C47.8125 32.4654 47.0079 30.5231 45.5471 29.0623C44.0863 27.6014 42.144 26.7969 40.0781 26.7969C38.0123 26.7969 36.07 27.6014 34.6091 29.0623C33.1483 30.5231 32.3438 32.4654 32.3438 34.5312C32.3438 36.5971 33.1483 38.5394 34.6091 40.0002C36.07 41.4611 38.0123 42.2656 40.0781 42.2656ZM40.0781 29.8906C42.637 29.8906 44.7188 31.9723 44.7188 34.5312C44.7188 37.0902 42.637 39.1719 40.0781 39.1719C37.5192 39.1719 35.4375 37.0902 35.4375 34.5312C35.4375 31.9723 37.5192 29.8906 40.0781 29.8906Z" fill="#31558C"/>
<path d="M53.999 58.5078C56.562 58.5078 58.6396 56.4301 58.6396 53.8672C58.6396 51.3042 56.562 49.2266 53.999 49.2266C51.4361 49.2266 49.3584 51.3042 49.3584 53.8672C49.3584 56.4301 51.4361 58.5078 53.999 58.5078Z" fill="#FFC482"/>
</svg>
