<svg width="108" height="100" viewBox="0 0 108 100" fill="none" xmlns="http://www.w3.org/2000/svg">
<path d="M39.8947 77.7388L45.9027 70.5327C46.2755 70.0846 46.7424 69.724 47.2702 69.4767C47.7981 69.2293 48.3739 69.1012 48.9568 69.1014H50.0289C51.082 69.1014 52.092 69.5198 52.8367 70.2645C53.5814 71.0091 53.9997 72.0191 53.9997 73.0722C53.9997 73.857 53.7672 74.6242 53.3316 75.2769L48.6875 82.2431C48.2007 82.9761 47.5352 83.5729 46.7537 83.9774C45.9723 84.3819 45.1007 84.5806 44.2212 84.5548L42.916 84.5151C42.109 84.491 41.3285 84.2214 40.6786 83.7424C40.0287 83.2634 39.5402 82.5976 39.2784 81.8339L39.1903 81.5801C38.9677 80.9333 38.9155 80.24 39.0389 79.5671C39.1623 78.8942 39.457 78.2645 39.8947 77.7388V77.7388Z" fill="#FFC482"/>
<path d="M33.0828 72.4526L38.9095 65.4588C39.3103 64.978 39.8119 64.5912 40.3787 64.3257C40.9456 64.0602 41.5638 63.9225 42.1897 63.9222H42.2881C43.1849 63.9222 44.0589 64.2043 44.7864 64.7286C45.514 65.2528 46.0581 65.9927 46.3418 66.8434C46.572 67.5338 46.6219 68.2717 46.4869 68.9869C46.3518 69.7021 46.0362 70.3709 45.5701 70.9298L39.7434 77.9236C39.3425 78.4044 38.841 78.7912 38.2741 79.0567C37.7073 79.3222 37.0891 79.4599 36.4631 79.4602H36.3647C35.468 79.4602 34.594 79.1781 33.8664 78.6539C33.1389 78.1296 32.5948 77.3897 32.3111 76.539C32.0809 75.8486 32.0309 75.1107 32.166 74.3955C32.301 73.6803 32.6166 73.0115 33.0828 72.4526V72.4526Z" fill="#FFC482"/>
<path d="M84.9052 65.0461C86.1494 64.6608 87.2074 63.8296 87.8764 62.7119C88.5358 61.6128 88.7744 60.3118 88.5477 59.0502C88.321 57.7885 87.6445 56.6519 86.6437 55.8511C77.6981 48.6938 68.0315 42.4878 57.8001 37.3333C54.8254 37.7543 51.8268 37.9849 48.8226 38.0239L48.4031 39.6985C48.0297 41.1925 47.1676 42.5188 45.9539 43.4667C44.7402 44.4145 43.2445 44.9294 41.7046 44.9296H35.0112L40.1905 31.1182L41.7874 30.7504L41.4421 30.6762C37.2559 29.8377 33.4114 27.7791 30.3929 24.7597L28.5888 22.9556L14.9482 47.4865L15.3591 48.6536C16.4418 52.4473 17.877 56.1315 19.6459 59.6579L21.6054 57.0441C22.0141 56.4997 22.5438 56.0579 23.1527 55.7535C23.7615 55.4491 24.4328 55.2904 25.1135 55.29H25.4398C26.0164 55.2891 26.5875 55.4019 27.1204 55.622C27.6534 55.842 28.1377 56.1651 28.5456 56.5725C28.9536 56.98 29.2772 57.4639 29.4979 57.9966C29.7186 58.5293 29.8321 59.1003 29.8318 59.6769V60.3847C29.8325 60.9617 29.7195 61.5332 29.4991 62.0664C29.2786 62.5996 28.9553 63.0842 28.5474 63.4923L28.6009 63.4388L32.0331 60.0066C32.8344 59.2054 33.9211 58.7552 35.0543 58.755H35.3841C36.2808 58.7549 37.1548 59.037 37.8824 59.5613C38.6099 60.0855 39.154 60.8254 39.4377 61.6761C39.6679 62.3666 39.7179 63.1044 39.5828 63.8196C39.4478 64.5348 39.1322 65.2036 38.666 65.7626L38.9094 65.4708C39.3103 64.9901 39.8119 64.6033 40.3787 64.3377C40.9455 64.0722 41.5638 63.9345 42.1897 63.9343H42.2881C43.1848 63.9342 44.0589 64.2163 44.7864 64.7406C45.5139 65.2648 46.0581 66.0047 46.3418 66.8554C46.572 67.5459 46.6219 68.2837 46.4868 68.9989C46.3518 69.7141 46.0362 70.3829 45.57 70.9419L45.9032 70.5448C46.2761 70.0967 46.7429 69.7362 47.2708 69.4888C47.7986 69.2415 48.3744 69.1133 48.9573 69.1136H50.0312C51.0843 69.1136 52.0943 69.5319 52.8389 70.2766C53.5836 71.0213 54.002 72.0312 54.002 73.0844C54.002 73.8691 53.7695 74.6363 53.3338 75.289L49.1558 81.5577L50.9116 82.1861C53.8553 83.2375 57.043 83.4007 60.0786 82.6555C63.1143 81.9102 65.864 80.2894 67.9861 77.9944C69.5967 78.157 71.2219 77.9006 72.7042 77.2499C74.1864 76.5993 75.4752 75.5765 76.4456 74.2808L78.4448 71.2837C79.4984 71.0298 80.4836 70.5483 81.3312 69.8731C82.1789 69.1978 82.8684 68.3452 83.3514 67.375L84.9052 65.0444V65.0461Z" fill="#FFC482"/>
<path d="M80.7976 26.9523C76.6348 28.4787 72.095 28.6443 67.832 27.4254C64.4225 26.4514 60.8215 26.3587 57.3664 27.156L40.1901 31.1199L35.0107 44.9314H41.7041C43.2441 44.9312 44.7398 44.4162 45.9535 43.4684C47.1672 42.5206 48.0293 41.1943 48.4027 39.7003L48.8222 38.0257C51.8201 37.9866 54.8123 37.7559 57.7807 37.3351V37.3248C68.0364 42.4521 77.7136 48.663 86.6467 55.8511C86.9008 56.0552 87.1359 56.2817 87.3494 56.5279L94.1395 49.6222L80.7976 26.9523Z" fill="#FFC482"/>
<path d="M88.5305 17.2427L105.795 46.5921L95.4362 51.837L78.1719 22.4876L88.5305 17.2427Z" fill="#3B5892"/>
<path d="M83.9619 19.5561L98.0669 43.5346C98.2896 43.9131 98.6481 44.1926 99.0696 44.3161C99.491 44.4396 99.9437 44.3978 100.335 44.1993L103.457 42.6178L88.5301 17.2427L83.9619 19.5561Z" fill="#3D8AA4"/>
<path d="M18.4726 64.3762C18.248 63.7034 18.19 62.9862 18.3037 62.2862C18.4174 61.5861 18.6993 60.9241 19.1252 60.357L21.6096 57.044C22.0183 56.4997 22.548 56.0578 23.1569 55.7534C23.7657 55.449 24.437 55.2903 25.1177 55.2899H25.444C26.0201 55.2897 26.5907 55.403 27.123 55.6234C27.6554 55.8438 28.1391 56.1669 28.5465 56.5743C28.9539 56.9817 29.277 57.4654 29.4974 57.9977C29.7178 58.5301 29.8311 59.1006 29.8309 59.6768V60.3846C29.8315 60.9616 29.7185 61.5331 29.4981 62.0663C29.2776 62.5996 28.9543 63.0841 28.5464 63.4922L25.936 66.1026C25.5279 66.5105 25.0434 66.8339 24.5101 67.0543C23.9769 67.2747 23.4054 67.3878 22.8284 67.3871H22.6264C21.7057 67.3846 20.809 67.0925 20.0635 66.5521C19.318 66.0117 18.7614 65.2505 18.4726 64.3762V64.3762Z" fill="#FFC482"/>
<path d="M25.9021 66.1234L32.0309 59.9946C32.8323 59.1934 33.919 58.7432 35.0522 58.7429H35.3819C36.2787 58.7429 37.1527 59.025 37.8802 59.5492C38.6077 60.0735 39.1519 60.8134 39.4356 61.6641C39.6658 62.3545 39.7157 63.0924 39.5807 63.8076C39.4456 64.5227 39.13 65.1916 38.6639 65.7505L32.8372 72.7443C32.4363 73.2251 31.9347 73.6119 31.3679 73.8774C30.8011 74.1429 30.1828 74.2806 29.5569 74.2808H28.925C28.3638 74.2811 27.808 74.1707 27.2893 73.9561C26.7707 73.7415 26.2995 73.4267 25.9025 73.0299C25.5056 72.6331 25.1907 72.162 24.9758 71.6435C24.761 71.125 24.6504 70.5692 24.6504 70.0079V69.1447C24.6507 68.0115 25.1009 66.9248 25.9021 66.1234V66.1234Z" fill="#FFC482"/>
<path d="M19.4724 15.4525L2.20801 46.5922L12.5666 51.7716L29.831 20.6957L19.4724 15.4525Z" fill="#3B5892"/>
<path d="M13.2578 40.5307L25.4982 18.4979L19.473 15.4525L4.83105 41.867L6.40556 42.6542C7.60097 43.2532 8.98169 43.3666 10.2588 42.9709C11.536 42.5751 12.6106 41.7007 13.2578 40.5307V40.5307Z" fill="#3D8AA4"/>
<path d="M107.282 45.71L90.0179 16.3605C89.7953 15.982 89.4367 15.7025 89.0152 15.579C88.5938 15.4556 88.1411 15.4973 87.7494 15.6959L77.3908 20.9408C77.1802 21.0474 76.9936 21.196 76.8427 21.3775C76.6918 21.559 76.5798 21.7695 76.5134 21.996C76.4471 22.2225 76.4279 22.4602 76.4571 22.6945C76.4862 22.9287 76.5631 23.1544 76.6829 23.3578L78.1953 25.9285C74.941 26.7409 71.5302 26.6813 68.3062 25.7558C64.615 24.7045 60.7178 24.6042 56.9774 25.464L41.7675 28.9739C37.9152 28.205 34.3775 26.3106 31.6022 23.5304L30.7166 22.6448L31.3398 21.5243C31.4527 21.3213 31.5235 21.0975 31.5478 20.8665C31.5722 20.6355 31.5497 20.4019 31.4817 20.1798C31.4137 19.9577 31.3015 19.7515 31.1519 19.5738C31.0024 19.396 30.8185 19.2503 30.6112 19.1453L20.2526 13.9021C19.8541 13.6999 19.3926 13.6602 18.9654 13.7912C18.5381 13.9223 18.1783 14.2139 17.9616 14.6048L0.69728 45.7445C0.584193 45.9483 0.513548 46.1729 0.489603 46.4048C0.465658 46.6366 0.488909 46.8709 0.557954 47.0935C0.627 47.3161 0.74041 47.5225 0.891347 47.7001C1.04229 47.8777 1.22762 48.0229 1.43619 48.127L11.7948 53.3063C12.1909 53.5063 12.6487 53.5461 13.0734 53.4175C13.498 53.289 13.8569 53.0018 14.0754 52.6157L14.5278 51.8008C15.4062 54.4248 16.4505 56.9903 17.6543 59.4817C17.0051 60.3941 16.6199 61.4677 16.541 62.5847C16.4621 63.7017 16.6926 64.8188 17.2071 65.8134C17.7216 66.808 18.5002 67.6415 19.4575 68.2225C20.4147 68.8035 21.5136 69.1094 22.6334 69.1066H22.8354C22.8682 69.1066 22.8975 69.098 22.9303 69.0963V69.1498V70.013C22.9322 71.6036 23.5648 73.1285 24.6895 74.2532C25.8142 75.3779 27.3391 76.0105 28.9297 76.0124H29.5616C29.8512 76.0018 30.1397 75.9701 30.4248 75.9174C30.5079 76.726 30.7577 77.5086 31.1585 78.2157C31.5593 78.9229 32.1024 79.5393 32.7534 80.026C33.4044 80.5127 34.1493 80.8591 34.941 81.0434C35.7326 81.2277 36.5539 81.2459 37.353 81.0967C37.3892 81.454 37.4609 81.8068 37.5671 82.1499L37.6534 82.4002C38.0334 83.493 38.7354 84.4453 39.6669 85.1315C40.5985 85.8178 41.716 86.206 42.8724 86.245L44.1776 86.2847H44.3917C45.4397 86.2856 46.4741 86.0461 47.4151 85.5846C48.3561 85.123 49.1787 84.4518 49.8196 83.6225L50.3375 83.8072C53.4584 84.9288 56.833 85.1444 60.0713 84.4292C63.3096 83.7141 66.2794 82.0973 68.6377 79.7657C68.7379 79.7657 68.838 79.7864 68.9381 79.7864C70.6811 79.7781 72.3979 79.3619 73.9511 78.571C75.5043 77.7802 76.8508 76.6367 77.8828 75.232L79.5384 72.7477C80.6759 72.3819 81.73 71.7955 82.6406 71.022C83.5513 70.2486 84.3005 69.3032 84.8455 68.24L86.054 66.4376C87.4335 65.8698 88.5934 64.8727 89.3619 63.5941C89.9727 62.5618 90.3092 61.3904 90.3394 60.1913C90.3696 58.9922 90.0925 57.8054 89.5345 56.7436L93.7815 52.4275L93.9456 52.7072C94.1682 53.0858 94.5268 53.3652 94.9482 53.4887C95.3697 53.6122 95.8224 53.5704 96.2141 53.3719L106.573 48.127C106.783 48.0204 106.97 47.8718 107.121 47.6903C107.272 47.5088 107.384 47.2983 107.45 47.0718C107.516 46.8452 107.536 46.6075 107.506 46.3733C107.477 46.1391 107.4 45.9133 107.281 45.71H107.282ZM11.8604 49.4874L4.59039 45.8533L20.1767 17.7417L27.4501 21.4242L11.8604 49.4874ZM22.6334 65.6486C22.1397 65.6479 21.656 65.5098 21.2364 65.2499C20.8167 64.99 20.4777 64.6184 20.2571 64.1768C20.0366 63.7351 19.9432 63.2409 19.9876 62.7492C20.0319 62.2576 20.2121 61.788 20.5081 61.3929L22.9925 58.0816C23.2406 57.7513 23.562 57.4832 23.9314 57.2984C24.3008 57.1135 24.7081 57.017 25.1212 57.0164H25.4457C26.1506 57.0173 26.8263 57.2977 27.3247 57.7961C27.8231 58.2945 28.1035 58.9703 28.1045 59.6751V60.3847C28.1017 61.0893 27.822 61.7645 27.3258 62.2648L24.7155 64.8734C24.4691 65.121 24.1761 65.3174 23.8534 65.451C23.5307 65.5847 23.1847 65.653 22.8354 65.652L22.6334 65.6486ZM28.9245 72.5543C28.2494 72.5534 27.6022 72.2848 27.1249 71.8075C26.6475 71.3301 26.3789 70.6829 26.378 70.0078V69.1446C26.3799 68.4696 26.6479 67.8226 27.1238 67.3439C27.1342 67.3336 27.1497 67.3249 27.1601 67.3146L29.7653 64.7008C29.7843 64.6835 29.7964 64.6611 29.8154 64.6421L33.2492 61.2082C33.485 60.9714 33.7654 60.7837 34.0742 60.656C34.383 60.5283 34.714 60.463 35.0482 60.4641H35.3779C35.8617 60.4641 36.3354 60.602 36.7436 60.8615C37.1519 61.121 37.4778 61.4914 37.6832 61.9293C37.8885 62.3673 37.965 62.8547 37.9034 63.3345C37.8419 63.8143 37.645 64.2666 37.3357 64.6386L31.7541 71.3475L31.5176 71.6324C31.2789 71.9195 30.9799 72.1505 30.6418 72.309C30.3038 72.4674 29.9349 72.5494 29.5616 72.5491L28.9245 72.5543ZM36.3637 77.7336C35.8802 77.7336 35.4066 77.5959 34.9984 77.3367C34.5902 77.0774 34.2643 76.7072 34.0588 76.2695C33.8532 75.8318 33.7765 75.3446 33.8377 74.865C33.8989 74.3853 34.0954 73.9329 34.4042 73.5608L39.9927 66.8554L40.2292 66.5722C40.4807 66.2747 40.796 66.0378 41.1517 65.8791C41.5074 65.7204 41.8943 65.6439 42.2837 65.6555C42.7674 65.6555 43.2411 65.7934 43.6494 66.0529C44.0576 66.3124 44.3835 66.6828 44.5889 67.1207C44.7943 67.5587 44.8707 68.0461 44.8092 68.5259C44.7476 69.0057 44.5507 69.458 44.2415 69.83L38.4147 76.8221C38.1631 77.1181 37.8482 77.3538 37.4931 77.5116C37.1381 77.6694 36.7521 77.7453 36.3637 77.7336V77.7336ZM44.276 82.8283L42.9708 82.7886C42.5141 82.7735 42.0727 82.6202 41.705 82.349C41.3372 82.0777 41.0604 81.7013 40.9112 81.2694L40.8248 81.019C40.6998 80.6532 40.6708 80.2613 40.7407 79.881C40.8105 79.5008 40.9768 79.1448 41.2236 78.8472L46.8984 72.0364L47.2247 71.6462C47.4354 71.3928 47.6993 71.1888 47.9977 71.0489C48.2961 70.909 48.6216 70.8364 48.9512 70.8365H50.0302C50.4381 70.8348 50.8388 70.9442 51.1892 71.1531C51.5395 71.362 51.8264 71.6624 52.0188 72.0221C52.2113 72.3817 52.302 72.787 52.2814 73.1944C52.2607 73.6018 52.1295 73.9959 51.9017 74.3343L47.2575 81.2987C46.9313 81.7858 46.4864 82.1819 45.9648 82.4495C45.4431 82.7171 44.8619 82.8475 44.276 82.8283V82.8283ZM86.401 61.8262C86.1556 62.2348 85.8309 62.5901 85.446 62.8712C85.0611 63.1523 84.6238 63.3535 84.16 63.4629C83.6961 63.5724 83.215 63.5878 82.745 63.5083C82.2751 63.4288 81.8258 63.2561 81.4237 63.0002L67.0218 53.8346L65.1659 56.7488L79.5643 65.9093C80.2168 66.3199 80.9325 66.6203 81.6827 66.7984C81.3239 67.4553 80.8391 68.035 80.2561 68.5044C79.6732 68.9739 79.0034 69.3239 78.2852 69.5344C77.5669 69.7449 76.8142 69.8118 76.07 69.7313C75.3259 69.6508 74.6049 69.4245 73.9482 69.0652L61.7354 62.4063L60.0815 65.4379L72.3012 72.1003C73.1993 72.5858 74.1719 72.9184 75.1792 73.0843L75.0739 73.2449C73.9266 74.7905 72.2374 75.8451 70.3451 76.1974C68.4527 76.5496 66.4972 76.1733 64.8706 75.144L58.3792 71.0869L56.5475 74.0218L63.0389 78.0789C63.4747 78.3494 63.928 78.5905 64.3959 78.8006C62.5912 80.0646 60.5164 80.89 58.3365 81.211C56.1567 81.532 53.932 81.3398 51.8395 80.6496L54.7744 76.2437C55.3497 75.3853 55.6806 74.3866 55.7318 73.3546C55.783 72.3226 55.5526 71.296 55.0652 70.3849C54.5778 69.4738 53.8517 68.7123 52.9648 68.1821C52.0779 67.652 51.0635 67.373 50.0302 67.375H48.9633C48.7201 67.3857 48.4779 67.4123 48.2382 67.4544C48.1913 67.0617 48.1069 66.6743 47.9861 66.2977C47.5792 65.0892 46.7993 64.041 45.7588 63.3038C44.7183 62.5667 43.4707 62.1787 42.1956 62.1957C41.906 62.2063 41.6175 62.238 41.3324 62.2907C41.2858 61.8926 41.2008 61.5001 41.0786 61.1184C40.6808 59.9225 39.9161 58.8825 38.8934 58.1461C37.8706 57.4097 36.6417 57.0144 35.3814 57.0164H35.0516C33.7203 57.0206 32.4291 57.4731 31.3864 58.3009C31.0755 56.9564 30.319 55.7565 29.2398 54.8965C28.1606 54.0364 26.8223 53.5666 25.4423 53.5635H25.1177C24.1691 53.5659 23.2339 53.7879 22.3854 54.212C21.5369 54.6361 20.798 55.2509 20.2267 56.0082L19.9833 56.3327C18.8048 53.6882 17.8137 50.9641 17.0173 48.1805L16.8446 47.6073L28.9677 25.7955L29.1541 25.982C31.6885 28.5159 34.7738 30.4302 38.1696 31.5756L33.3925 44.3288C33.2953 44.5899 33.2627 44.8706 33.2975 45.1471C33.3323 45.4235 33.4335 45.6874 33.5925 45.9162C33.7514 46.1451 33.9634 46.332 34.2102 46.4611C34.4571 46.5903 34.7316 46.6577 35.0102 46.6578H41.7036C43.6292 46.6597 45.5 46.017 47.0178 44.8321C48.5357 43.6472 49.6131 41.9883 50.0785 40.1198L50.1769 39.7227C52.6031 39.6333 55.0231 39.4219 57.428 39.0891C67.4027 44.148 76.8323 50.2165 85.5689 57.1994C86.2406 57.7415 86.694 58.5079 86.846 59.3575C86.9979 60.2072 86.8381 61.0832 86.3959 61.8245L86.401 61.8262ZM87.2642 54.1436C79.7162 48.1535 71.664 42.8277 63.1977 38.2259L64.5668 38.0049L64.0143 34.5934L58.835 35.4273C55.5139 35.9634 52.1579 36.2548 48.7941 36.2992C48.4131 36.3041 48.0444 36.435 47.7455 36.6714C47.4467 36.9078 47.2344 37.2364 47.1419 37.6061L46.7223 39.2824C46.4421 40.4028 45.7955 41.3973 44.8852 42.108C43.9749 42.8187 42.8533 43.2048 41.6984 43.2049H37.5015L41.4723 32.5925L57.7456 28.8392C60.916 28.1097 64.2194 28.1946 67.3481 29.0861C71.4858 30.2753 75.878 30.2519 80.0029 29.0188L91.9619 49.351L87.2642 54.1436ZM96.1071 49.5651L80.5881 23.1972L87.8599 19.5165L103.377 45.8826L96.1071 49.5651Z" fill="#31558C"/>
</svg>
