<svg width="112" height="57" viewBox="0 0 112 57" fill="none" xmlns="http://www.w3.org/2000/svg">
<path fill-rule="evenodd" clip-rule="evenodd" d="M73.048 16.7846C73.2308 15.7935 73.4417 14.8025 73.8423 13.8677C75.2972 14.191 76.71 14.676 78.1368 15.1047C82.0448 16.2785 85.9246 17.5226 89.7834 18.851C93.382 20.0881 96.8261 21.6836 100.101 23.6376C102.934 25.3315 105.535 27.3136 107.58 29.9353C110.363 33.4988 111.34 37.5192 110.891 42.0106C110.377 47.1345 107.531 50.5153 103.229 52.898C99.8766 54.7606 96.2146 55.6743 92.4613 56.2718C87.2319 57.1012 81.9675 57.1223 76.703 56.8271C72.5982 56.6021 68.5216 56.1172 64.473 55.4143C63.2922 55.2105 62.0973 55.0558 61.2188 54.7817C62.2449 54.852 63.5452 54.9574 64.8526 55.0277C70.2576 55.3229 75.6487 55.2737 81.0045 54.4443C85.5169 53.7415 89.9099 52.6239 93.8811 50.2271C95.9686 48.969 97.775 47.4156 99.012 45.2719C100.481 42.7205 100.664 40.0144 99.9609 37.21C98.8855 32.9084 96.2146 29.7455 92.7846 27.1238C88.6939 23.989 84.1604 21.6344 79.4863 19.5047C77.3637 18.5418 75.2129 17.6561 73.0551 16.7846H73.048Z" fill="#3A8BA5"/>
<path fill-rule="evenodd" clip-rule="evenodd" d="M66.5959 11.7661C66.378 12.5674 66.1883 13.3897 65.9634 14.191C63.5174 13.3124 60.8043 12.4268 58.3161 11.6677C55.1673 10.7048 52.0114 9.79102 48.8555 8.84918C47.8223 8.53992 46.768 8.34311 45.7559 7.95653C45.9737 7.81596 46.2268 7.87219 46.4587 7.87219C47.9137 7.87219 49.3756 7.89328 50.8306 7.90733C51.5194 8.25174 52.2855 8.315 53.0235 8.47666C55.7717 9.0741 58.5059 9.74182 61.233 10.4166C62.948 10.8383 64.8669 11.3373 66.5819 11.7661H66.5959Z" fill="#3A8BA5"/>
<path fill-rule="evenodd" clip-rule="evenodd" d="M45.7637 7.95648C45.0187 7.94242 44.2666 7.91431 43.5216 7.91431C31.9172 7.91431 20.3199 7.91431 8.71552 7.91431C8.25162 7.91431 8.10636 7.7011 8.27974 7.2747C9.19347 5.03254 10.1213 2.79742 11.0139 0.548237C11.1756 0.133544 11.3653 0 11.8152 0C23.6796 0.0140574 35.544 0.0140577 47.4014 0.0140577H111.876C111.644 0.625554 111.433 1.19488 111.215 1.7642C110.491 3.64086 109.753 5.51049 109.057 7.40121C108.91 7.80185 108.734 7.93539 108.305 7.92836C104.945 7.90728 101.579 7.92837 98.2189 7.90728C97.7972 7.90728 97.6074 8.00568 97.502 8.43443C96.5742 12.0964 95.6042 15.7583 94.6764 19.4203C94.5429 19.9615 94.3672 20.0247 93.8681 19.8209C91.7806 18.9704 89.679 18.1621 87.5774 17.3538C87.212 17.2133 87.1206 17.0727 87.233 16.665C88.0132 13.966 88.7653 11.2529 89.5244 8.54689C89.7001 7.92134 89.6931 7.91431 89.0675 7.91431C81.4062 7.91431 73.752 7.91431 66.0907 7.91431C61.009 7.91431 55.9272 7.91431 50.8455 7.91431C49.3906 7.90025 47.9286 7.88619 46.4737 7.87916C46.2417 7.87916 45.9887 7.81591 45.7708 7.96351L45.7637 7.95648Z" fill="#34548A"/>
<path fill-rule="evenodd" clip-rule="evenodd" d="M80.3086 41.3217C81.3207 37.723 82.3047 34.2157 83.2958 30.7014C83.9424 28.3889 84.6101 26.0835 85.2427 23.7641C85.3552 23.3564 85.4536 23.3494 85.7699 23.5813C87.7168 24.9589 89.6778 26.3155 91.6459 27.672C91.934 27.8688 92.0184 28.0305 91.913 28.396C90.7251 32.564 89.5654 36.7461 88.3986 40.9211C88.3354 41.139 88.3072 41.3358 87.9839 41.3358C85.4466 41.3217 82.9092 41.3358 80.3086 41.3358V41.3217Z" fill="#34548A"/>
<path d="M0 41.2869L8.00568 11.0846H18.3097C21.1774 11.0846 23.0119 11.1197 23.8132 11.19C25.3947 11.3165 26.8074 11.5696 28.0515 11.9491C29.2956 12.3357 30.4272 12.8699 31.4393 13.5657C32.4585 14.2616 33.3371 15.091 34.0751 16.0679C34.8131 17.0449 35.3824 18.1695 35.7831 19.4347C36.1837 20.7069 36.3805 22.0986 36.3805 23.6097C36.3805 26.864 35.5933 29.7528 34.0189 32.2761C32.4444 34.7994 30.4694 36.7956 28.0867 38.2786C26.2592 39.4313 23.9046 40.2818 21.0228 40.83C19.3851 41.1323 16.8759 41.2869 13.4881 41.2869H0.00702483H0ZM9.15136 36.423H13.1437C16.0324 36.423 18.12 36.2825 19.4132 36.0013C20.7065 35.7202 21.8944 35.193 22.9698 34.4269C24.5161 33.3163 25.8234 31.8333 26.8848 29.9777C27.9461 28.1221 28.4732 25.9362 28.4732 23.427C28.4732 21.2832 28.0375 19.6737 27.1589 18.5983C26.2803 17.5229 25.1979 16.806 23.9116 16.4475C23.0049 16.2015 21.4024 16.075 19.0899 16.075H14.5283L9.15839 36.4301L9.15136 36.423Z" fill="#34548A"/>
<path d="M62.2948 27.7845H47.5064L43.9358 41.2796H36.0566L44.0623 11.0773H51.9134L48.8348 22.7379H63.6232L66.7299 11.0773H74.5809L66.6033 41.2796H58.7242L62.2948 27.7845Z" fill="#34548A"/>
<path d="M0.333984 43.1732H2.40018C2.86613 43.1732 3.22132 43.2089 3.46575 43.2802C3.7942 43.3769 4.07555 43.5488 4.3098 43.7958C4.54404 44.0427 4.72227 44.3457 4.84449 44.7047C4.9667 45.0612 5.02781 45.5017 5.02781 46.0262C5.02781 46.4871 4.97052 46.8843 4.85595 47.2178C4.71591 47.6252 4.51603 47.9549 4.25633 48.207C4.06027 48.3979 3.79547 48.5469 3.46193 48.6538C3.21241 48.7328 2.87886 48.7722 2.46129 48.7722H0.333984V43.1732ZM1.46447 44.1204V47.8289H2.30852C2.62425 47.8289 2.85213 47.811 2.99216 47.7754C3.17549 47.7296 3.32698 47.6519 3.44665 47.5424C3.56887 47.4329 3.66817 47.2534 3.74455 47.0039C3.82094 46.7519 3.85913 46.4094 3.85913 45.9765C3.85913 45.5437 3.82094 45.2114 3.74455 44.9797C3.66817 44.748 3.56123 44.5673 3.42374 44.4374C3.28624 44.3075 3.11183 44.2197 2.9005 44.1739C2.74264 44.1382 2.43328 44.1204 1.97243 44.1204H1.46447Z" fill="#3A8BA5"/>
<path d="M5.99025 48.7722V43.1732H10.1418V44.1204H7.12074V45.3617H9.93169V46.305H7.12074V47.8289H10.2487V48.7722H5.99025Z" fill="#3A8BA5"/>
<path d="M11.192 48.7722V43.1732H12.884L13.8999 46.9925L14.9043 43.1732H16.6001V48.7722H15.5498V44.3648L14.4384 48.7722H13.3499L12.2423 44.3648V48.7722H11.192Z" fill="#3A8BA5"/>
<path d="M22.7719 48.7722H21.5421L21.0533 47.5004H18.8152L18.3531 48.7722H17.1538L19.3346 43.1732H20.53L22.7719 48.7722ZM20.6904 46.5571L19.919 44.4794L19.1628 46.5571H20.6904Z" fill="#3A8BA5"/>
<path d="M23.3792 48.7722V43.1732H25.7586C26.3569 43.1732 26.791 43.2242 27.0609 43.326C27.3333 43.4253 27.551 43.6035 27.714 43.8607C27.877 44.1179 27.9584 44.4119 27.9584 44.7429C27.9584 45.1631 27.8349 45.5106 27.588 45.7856C27.341 46.058 26.9718 46.2299 26.4804 46.3012C26.7248 46.4438 26.926 46.6004 27.0838 46.7709C27.2442 46.9415 27.4594 47.2445 27.7293 47.6799L28.4129 48.7722H27.0609L26.2436 47.5539C25.9533 47.1185 25.7547 46.8448 25.6478 46.7328C25.5409 46.6182 25.4276 46.5405 25.3079 46.4998C25.1882 46.4565 24.9985 46.4349 24.7388 46.4349H24.5097V48.7722H23.3792ZM24.5097 45.5412H25.3461C25.8884 45.5412 26.227 45.5182 26.362 45.4724C26.4969 45.4266 26.6026 45.3477 26.679 45.2356C26.7554 45.1236 26.7936 44.9836 26.7936 44.8155C26.7936 44.6271 26.7426 44.4756 26.6408 44.361C26.5415 44.2439 26.4002 44.1701 26.2169 44.1395C26.1252 44.1268 25.8502 44.1204 25.3919 44.1204H24.5097V45.5412Z" fill="#3A8BA5"/>
<path d="M34.0768 48.7722H32.847L32.3582 47.5004H30.1201L29.658 48.7722H28.4587L30.6395 43.1732H31.8349L34.0768 48.7722ZM31.9953 46.5571L31.2239 44.4794L30.4677 46.5571H31.9953Z" fill="#3A8BA5"/>
<path d="M35.4327 48.7722V46.4158L33.3817 43.1732H34.707L36.0246 45.3884L37.3155 43.1732H38.6179L36.5593 46.4234V48.7722H35.4327Z" fill="#3A8BA5"/>
<path d="M41.215 48.7722V43.1732H42.3454V45.3769H44.5606V43.1732H45.6911V48.7722H44.5606V46.3241H42.3454V48.7722H41.215Z" fill="#3A8BA5"/>
<path d="M51.9126 48.7722H50.6828L50.1939 47.5004H47.9559L47.4938 48.7722H46.2945L48.4753 43.1732H49.6707L51.9126 48.7722ZM49.8311 46.5571L49.0596 44.4794L48.3034 46.5571H49.8311Z" fill="#3A8BA5"/>
<path d="M52.5199 48.7722V43.1732H54.8992C55.4976 43.1732 55.9317 43.2242 56.2016 43.326C56.474 43.4253 56.6917 43.6035 56.8547 43.8607C57.0176 44.1179 57.0991 44.4119 57.0991 44.7429C57.0991 45.1631 56.9756 45.5106 56.7286 45.7856C56.4817 46.058 56.1125 46.2299 55.6211 46.3012C55.8655 46.4438 56.0666 46.6004 56.2245 46.7709C56.3849 46.9415 56.6001 47.2445 56.87 47.6799L57.5536 48.7722H56.2016L55.3843 47.5539C55.094 47.1185 54.8954 46.8448 54.7885 46.7328C54.6815 46.6182 54.5682 46.5405 54.4486 46.4998C54.3289 46.4565 54.1392 46.4349 53.8795 46.4349H53.6503V48.7722H52.5199ZM53.6503 45.5412H54.4868C55.0291 45.5412 55.3677 45.5182 55.5027 45.4724C55.6376 45.4266 55.7433 45.3477 55.8197 45.2356C55.8961 45.1236 55.9342 44.9836 55.9342 44.8155C55.9342 44.6271 55.8833 44.4756 55.7815 44.361C55.6822 44.2439 55.5409 44.1701 55.3575 44.1395C55.2659 44.1268 54.9909 44.1204 54.5326 44.1204H53.6503V45.5412Z" fill="#3A8BA5"/>
<path d="M59.4517 48.7722L57.4505 43.1732H58.6764L60.0934 47.3171L61.4645 43.1732H62.6637L60.6586 48.7722H59.4517Z" fill="#3A8BA5"/>
<path d="M63.2404 48.7722V43.1732H67.3919V44.1204H64.3709V45.3617H67.1819V46.305H64.3709V47.8289H67.4988V48.7722H63.2404Z" fill="#3A8BA5"/>
<path d="M68.171 46.9505L69.271 46.8435C69.3372 47.2127 69.4708 47.4839 69.672 47.657C69.8757 47.8301 70.1494 47.9167 70.4931 47.9167C70.8572 47.9167 71.1309 47.8403 71.3143 47.6876C71.5001 47.5322 71.5931 47.3515 71.5931 47.1452C71.5931 47.0128 71.5536 46.9008 71.4747 46.8091C71.3983 46.7149 71.2633 46.6335 71.0698 46.5647C70.9374 46.5189 70.6357 46.4374 70.1647 46.3203C69.5587 46.1701 69.1335 45.9855 68.889 45.7665C68.5453 45.4584 68.3735 45.0829 68.3735 44.6398C68.3735 44.3547 68.4537 44.0886 68.6141 43.8416C68.777 43.5921 69.01 43.4024 69.313 43.2725C69.6185 43.1427 69.9864 43.0778 70.4167 43.0778C71.1195 43.0778 71.6478 43.2318 72.0017 43.5399C72.3582 43.848 72.5453 44.2592 72.5631 44.7735L71.4326 44.8231C71.3843 44.5354 71.2799 44.3292 71.1195 44.2044C70.9616 44.0771 70.7235 44.0135 70.4053 44.0135C70.0768 44.0135 69.8197 44.0809 69.6338 44.2159C69.5141 44.3025 69.4543 44.4183 69.4543 44.5634C69.4543 44.6958 69.5103 44.8091 69.6223 44.9033C69.7649 45.023 70.1112 45.1478 70.6612 45.2776C71.2111 45.4075 71.6172 45.5424 71.8795 45.6825C72.1443 45.82 72.3505 46.0096 72.4982 46.2515C72.6484 46.4909 72.7235 46.7875 72.7235 47.1414C72.7235 47.4622 72.6344 47.7627 72.4562 48.0427C72.278 48.3228 72.0259 48.5316 71.7 48.6691C71.3741 48.804 70.968 48.8715 70.4817 48.8715C69.7738 48.8715 69.2302 48.7086 68.8509 48.3827C68.4715 48.0542 68.2449 47.5768 68.171 46.9505Z" fill="#3A8BA5"/>
<path d="M74.9349 48.7722V44.1204H73.2735V43.1732H77.7229V44.1204H76.0654V48.7722H74.9349Z" fill="#3A8BA5"/>
<path d="M78.4218 48.7722V43.1732H79.5523V48.7722H78.4218Z" fill="#3A8BA5"/>
<path d="M80.6446 48.7722V43.1732H81.7446L84.0361 46.9123V43.1732H85.0864V48.7722H83.9521L81.6949 45.121V48.7722H80.6446Z" fill="#3A8BA5"/>
<path d="M88.8903 46.7137V45.7703H91.327V48.0007C91.0902 48.2299 90.7465 48.4323 90.2958 48.608C89.8477 48.7811 89.3932 48.8677 88.9323 48.8677C88.3467 48.8677 87.8362 48.7455 87.4008 48.5011C86.9654 48.2541 86.6383 47.9027 86.4193 47.447C86.2003 46.9886 86.0908 46.4909 86.0908 45.9536C86.0908 45.3706 86.213 44.8524 86.4575 44.3992C86.7019 43.946 87.0596 43.5984 87.5307 43.3566C87.8897 43.1707 88.3365 43.0778 88.8712 43.0778C89.5663 43.0778 90.1087 43.2242 90.4982 43.517C90.8903 43.8072 91.1424 44.2095 91.2544 44.7238L90.1316 44.9339C90.0526 44.6589 89.9037 44.4425 89.6847 44.2846C89.4683 44.1242 89.1971 44.044 88.8712 44.044C88.3773 44.044 87.9839 44.2006 87.6911 44.5138C87.4008 44.827 87.2557 45.2916 87.2557 45.9078C87.2557 46.5723 87.4034 47.0714 87.6987 47.4049C87.9941 47.7359 88.3811 47.9014 88.8598 47.9014C89.0966 47.9014 89.3334 47.8556 89.5701 47.7639C89.8095 47.6697 90.0145 47.5564 90.185 47.424V46.7137H88.8903Z" fill="#3A8BA5"/>
<path d="M5.06128 56.1015L4.439 56.8958C4.13396 56.747 3.84112 56.542 3.56048 56.2809C3.34329 56.4761 3.11268 56.6201 2.86865 56.7128C2.62462 56.8056 2.33422 56.8519 1.99745 56.8519C1.3288 56.8519 0.826094 56.664 0.489329 56.2882C0.228214 55.9978 0.0976562 55.6635 0.0976562 55.2852C0.0976562 54.9411 0.20015 54.6324 0.405138 54.3591C0.610125 54.0834 0.916386 53.8442 1.32392 53.6417C1.1409 53.4245 1.00302 53.2183 0.910285 53.023C0.817553 52.8254 0.771187 52.6387 0.771187 52.463C0.771187 52.1384 0.900524 51.8639 1.1592 51.6394C1.42031 51.4124 1.79124 51.299 2.27199 51.299C2.73565 51.299 3.09804 51.4173 3.35915 51.654C3.62027 51.8907 3.75083 52.1799 3.75083 52.5216C3.75083 52.7387 3.68616 52.945 3.55682 53.1402C3.42748 53.3354 3.16637 53.5563 2.77348 53.8027L3.52022 54.7874C3.60807 54.6312 3.68372 54.4275 3.74717 54.1761L4.67693 54.3884C4.5842 54.7178 4.50367 54.9594 4.43534 55.1132C4.36701 55.2645 4.2938 55.3914 4.21571 55.4939C4.33041 55.6012 4.47804 55.7196 4.65863 55.8489C4.84165 55.9758 4.97587 56.06 5.06128 56.1015ZM2.26101 53.1841L2.5392 52.9718C2.74419 52.8132 2.84669 52.6558 2.84669 52.4996C2.84669 52.3678 2.79666 52.2556 2.69661 52.1628C2.59899 52.0701 2.46599 52.0237 2.29761 52.0237C2.13411 52.0237 2.00599 52.0652 1.91326 52.1482C1.82053 52.2287 1.77416 52.3227 1.77416 52.43C1.77416 52.5569 1.85225 52.7107 2.00843 52.8913L2.26101 53.1841ZM1.85835 54.3006C1.62164 54.4201 1.44472 54.5641 1.32758 54.7325C1.21045 54.9009 1.15188 55.0729 1.15188 55.2486C1.15188 55.4707 1.22387 55.6525 1.36785 55.794C1.51427 55.9331 1.70949 56.0027 1.95353 56.0027C2.11459 56.0027 2.26955 55.971 2.41841 55.9075C2.56727 55.8441 2.72955 55.7391 2.90525 55.5927L1.85835 54.3006Z" fill="#3A8BA5"/>
<path d="M9.0256 56.7567V52.2983H7.43328V51.3905H11.6978V52.2983H10.1091V56.7567H9.0256Z" fill="#3A8BA5"/>
<path d="M12.4042 56.7567V51.3905H14.6847C15.2582 51.3905 15.6743 51.4393 15.9329 51.5369C16.1941 51.6321 16.4027 51.8029 16.5589 52.0494C16.7151 52.2958 16.7932 52.5777 16.7932 52.8949C16.7932 53.2976 16.6748 53.6307 16.4381 53.8942C16.2014 54.1554 15.8475 54.3201 15.3765 54.3884C15.6108 54.5251 15.8036 54.6751 15.9549 54.8386C16.1086 55.0021 16.3149 55.2925 16.5735 55.7098L17.2288 56.7567H15.9329L15.1496 55.589C14.8714 55.1718 14.6811 54.9094 14.5786 54.802C14.4761 54.6922 14.3675 54.6178 14.2528 54.5788C14.1381 54.5373 13.9563 54.5165 13.7074 54.5165H13.4877V56.7567H12.4042ZM13.4877 53.66H14.2894C14.8092 53.66 15.1337 53.638 15.2631 53.5941C15.3924 53.5502 15.4937 53.4745 15.5669 53.3671C15.6401 53.2598 15.6767 53.1255 15.6767 52.9645C15.6767 52.7839 15.6279 52.6387 15.5303 52.5289C15.4351 52.4166 15.2997 52.3459 15.124 52.3166C15.0361 52.3044 14.7726 52.2983 14.3333 52.2983H13.4877V53.66Z" fill="#3A8BA5"/>
<path d="M17.8108 51.3905H18.8943V54.2969C18.8943 54.7581 18.9077 55.0571 18.9345 55.1937C18.9809 55.4133 19.0907 55.5903 19.264 55.7245C19.4397 55.8563 19.6788 55.9222 19.9814 55.9222C20.2889 55.9222 20.5208 55.8599 20.6769 55.7355C20.8331 55.6086 20.9271 55.4536 20.9588 55.2706C20.9905 55.0876 21.0064 54.7837 21.0064 54.3591V51.3905H22.0899V54.209C22.0899 54.8533 22.0606 55.3084 22.002 55.5744C21.9435 55.8404 21.8349 56.0649 21.6763 56.2479C21.5201 56.431 21.3102 56.5774 21.0466 56.6872C20.7831 56.7946 20.439 56.8483 20.0144 56.8483C19.5019 56.8483 19.1127 56.7897 18.8467 56.6726C18.5831 56.553 18.3745 56.3992 18.2208 56.2113C18.067 56.021 17.9657 55.8221 17.9169 55.6147C17.8462 55.3072 17.8108 54.8533 17.8108 54.253V51.3905Z" fill="#3A8BA5"/>
<path d="M26.6692 54.7837L27.7197 55.1168C27.5587 55.7025 27.2902 56.1381 26.9144 56.4236C26.541 56.7067 26.0664 56.8483 25.4905 56.8483C24.7779 56.8483 24.1922 56.6054 23.7335 56.1198C23.2747 55.6318 23.0453 54.9655 23.0453 54.1212C23.0453 53.228 23.2759 52.535 23.7371 52.042C24.1983 51.5466 24.8048 51.299 25.5564 51.299C26.2128 51.299 26.746 51.493 27.156 51.881C27.4 52.1104 27.5831 52.4398 27.7051 52.8693L26.6326 53.1255C26.5691 52.8473 26.4361 52.6277 26.2336 52.4666C26.0335 52.3056 25.7894 52.2251 25.5015 52.2251C25.1037 52.2251 24.7804 52.3678 24.5314 52.6533C24.285 52.9389 24.1617 53.4013 24.1617 54.0407C24.1617 54.7191 24.2837 55.2023 24.5278 55.4902C24.7718 55.7782 25.0891 55.9222 25.4795 55.9222C25.7675 55.9222 26.0152 55.8306 26.2226 55.6476C26.43 55.4646 26.5789 55.1766 26.6692 54.7837Z" fill="#3A8BA5"/>
<path d="M28.6678 56.7567V51.3905H29.7513V53.7734L31.9403 51.3905H33.3972L31.3766 53.4806L33.507 56.7567H32.105L30.6298 54.2383L29.7513 55.1351V56.7567H28.6678Z" fill="#3A8BA5"/>
<path d="M34.0377 56.7567V51.3905H35.1212V56.7567H34.0377Z" fill="#3A8BA5"/>
<path d="M36.1681 56.7567V51.3905H37.2224L39.4187 54.9741V51.3905H40.4253V56.7567H39.3381L37.1748 53.2573V56.7567H36.1681Z" fill="#3A8BA5"/>
<path d="M44.0711 54.7837V53.8796H46.4065V56.0173C46.1796 56.237 45.8501 56.431 45.4182 56.5993C44.9887 56.7653 44.5531 56.8483 44.1114 56.8483C43.5501 56.8483 43.0609 56.7311 42.6436 56.4968C42.2263 56.2601 41.9127 55.9234 41.7028 55.4866C41.4929 55.0473 41.388 54.5702 41.388 54.0553C41.388 53.4965 41.5051 52.9999 41.7394 52.5655C41.9737 52.1311 42.3166 51.798 42.768 51.5662C43.1121 51.388 43.5404 51.299 44.0528 51.299C44.7191 51.299 45.2388 51.4393 45.6122 51.7199C45.988 51.9981 46.2296 52.3837 46.337 52.8766L45.2608 53.0779C45.1852 52.8144 45.0424 52.607 44.8325 52.4557C44.6251 52.3019 44.3652 52.2251 44.0528 52.2251C43.5794 52.2251 43.2024 52.3751 42.9218 52.6753C42.6436 52.9755 42.5045 53.4208 42.5045 54.0114C42.5045 54.6483 42.646 55.1266 42.9291 55.4463C43.2122 55.7635 43.5831 55.9222 44.0419 55.9222C44.2688 55.9222 44.4958 55.8782 44.7227 55.7904C44.9521 55.7001 45.1486 55.5915 45.3121 55.4646V54.7837H44.0711Z" fill="#3A8BA5"/>
<path d="M49.5253 56.7567V51.4344H50.6088V55.8526H53.3029V56.7567H49.5253Z" fill="#3A8BA5"/>
<path d="M54.1082 56.7567V51.4344H55.1917V55.8526H57.8858V56.7567H54.1082Z" fill="#3A8BA5"/>
<path d="M62.0954 54.7837L63.146 55.1168C62.9849 55.7025 62.7165 56.1381 62.3407 56.4236C61.9673 56.7067 61.4926 56.8483 60.9167 56.8483C60.2042 56.8483 59.6185 56.6054 59.1597 56.1198C58.7009 55.6318 58.4715 54.9655 58.4715 54.1212C58.4715 53.228 58.7021 52.535 59.1634 52.042C59.6246 51.5466 60.231 51.299 60.9826 51.299C61.6391 51.299 62.1723 51.493 62.5823 51.881C62.8263 52.1104 63.0093 52.4398 63.1313 52.8693L62.0588 53.1255C61.9954 52.8473 61.8624 52.6277 61.6598 52.4666C61.4597 52.3056 61.2157 52.2251 60.9277 52.2251C60.5299 52.2251 60.2066 52.3678 59.9577 52.6533C59.7112 52.9389 59.588 53.4013 59.588 54.0407C59.588 54.7191 59.71 55.2023 59.954 55.4902C60.1981 55.7782 60.5153 55.9222 60.9058 55.9222C61.1937 55.9222 61.4414 55.8306 61.6488 55.6476C61.8563 55.4646 62.0051 55.1766 62.0954 54.7837Z" fill="#3A8BA5"/>
</svg>
