<svg width="112" height="57" viewBox="0 0 112 57" fill="none" xmlns="http://www.w3.org/2000/svg">
<path fill-rule="evenodd" clip-rule="evenodd" d="M73.049 16.7846C73.2318 15.7935 73.4426 14.8025 73.8433 13.8677C75.2982 14.191 76.711 14.676 78.1378 15.1047C82.0457 16.2785 85.9256 17.5226 89.7843 18.851C93.383 20.0881 96.8271 21.6836 100.102 23.6376C102.935 25.3315 105.536 27.3136 107.581 29.9353C110.364 33.4988 111.341 37.5192 110.891 42.0106C110.378 47.1345 107.532 50.5153 103.23 52.898C99.8775 54.7606 96.2156 55.6743 92.4623 56.2718C87.2329 57.1012 81.9684 57.1223 76.7039 56.8271C72.5992 56.6021 68.5225 56.1172 64.474 55.4143C63.2932 55.2105 62.0983 55.0558 61.2197 54.7817C62.2459 54.852 63.5462 54.9574 64.8536 55.0277C70.2586 55.3229 75.6496 55.2737 81.0055 54.4443C85.5179 53.7415 89.9109 52.6239 93.8821 50.2271C95.9696 48.969 97.776 47.4156 99.013 45.2719C100.482 42.7205 100.665 40.0144 99.9619 37.21C98.8865 32.9084 96.2156 29.7455 92.7856 27.1238C88.6949 23.989 84.1614 21.6344 79.4873 19.5047C77.3646 18.5418 75.2139 17.6561 73.056 16.7846H73.049Z" fill="#3A8BA5"/>
<path fill-rule="evenodd" clip-rule="evenodd" d="M66.5969 11.7661C66.379 12.5674 66.1892 13.3897 65.9643 14.191C63.5183 13.3124 60.8053 12.4268 58.3171 11.6677C55.1683 10.7048 52.0124 9.79102 48.8565 8.84918C47.8233 8.53992 46.769 8.34311 45.7568 7.95653C45.9747 7.81596 46.2278 7.87219 46.4597 7.87219C47.9146 7.87219 49.3766 7.89328 50.8316 7.90733C51.5204 8.25174 52.2865 8.315 53.0245 8.47666C55.7727 9.0741 58.5069 9.74182 61.234 10.4166C62.949 10.8383 64.8679 11.3373 66.5829 11.7661H66.5969Z" fill="#3A8BA5"/>
<path fill-rule="evenodd" clip-rule="evenodd" d="M45.7637 7.95648C45.0187 7.94242 44.2666 7.91431 43.5216 7.91431C31.9172 7.91431 20.3199 7.91431 8.71552 7.91431C8.25162 7.91431 8.10636 7.7011 8.27974 7.2747C9.19347 5.03254 10.1213 2.79742 11.0139 0.548237C11.1756 0.133544 11.3653 0 11.8152 0C23.6796 0.0140574 35.544 0.0140577 47.4014 0.0140577H111.876C111.644 0.625554 111.433 1.19488 111.215 1.7642C110.491 3.64086 109.753 5.51049 109.057 7.40121C108.91 7.80185 108.734 7.93539 108.305 7.92836C104.945 7.90728 101.579 7.92837 98.2189 7.90728C97.7972 7.90728 97.6074 8.00568 97.502 8.43443C96.5742 12.0964 95.6042 15.7583 94.6764 19.4203C94.5429 19.9615 94.3672 20.0247 93.8681 19.8209C91.7806 18.9704 89.679 18.1621 87.5774 17.3538C87.212 17.2133 87.1206 17.0727 87.233 16.665C88.0132 13.966 88.7653 11.2529 89.5244 8.54689C89.7001 7.92134 89.6931 7.91431 89.0675 7.91431C81.4062 7.91431 73.752 7.91431 66.0907 7.91431C61.009 7.91431 55.9272 7.91431 50.8455 7.91431C49.3906 7.90025 47.9286 7.88619 46.4737 7.87916C46.2417 7.87916 45.9887 7.81591 45.7708 7.96351L45.7637 7.95648Z" fill="#34548A"/>
<path fill-rule="evenodd" clip-rule="evenodd" d="M80.3096 41.3217C81.3217 37.723 82.3057 34.2157 83.2968 30.7014C83.9434 28.3889 84.6111 26.0835 85.2437 23.7641C85.3562 23.3564 85.4546 23.3494 85.7709 23.5813C87.7178 24.9589 89.6788 26.3155 91.6468 27.672C91.935 27.8688 92.0194 28.0305 91.9139 28.396C90.7261 32.564 89.5664 36.7461 88.3996 40.9211C88.3363 41.139 88.3082 41.3358 87.9849 41.3358C85.4475 41.3217 82.9102 41.3358 80.3096 41.3358V41.3217Z" fill="#34548A"/>
<path d="M0 41.2869L8.00568 11.0846H18.3097C21.1774 11.0846 23.0119 11.1197 23.8132 11.19C25.3947 11.3165 26.8074 11.5696 28.0515 11.9491C29.2956 12.3357 30.4272 12.8699 31.4393 13.5657C32.4585 14.2616 33.3371 15.091 34.0751 16.0679C34.8131 17.0449 35.3824 18.1695 35.7831 19.4347C36.1837 20.7069 36.3805 22.0986 36.3805 23.6097C36.3805 26.864 35.5933 29.7528 34.0189 32.2761C32.4444 34.7994 30.4694 36.7956 28.0867 38.2786C26.2592 39.4313 23.9046 40.2818 21.0228 40.83C19.3851 41.1323 16.8759 41.2869 13.4881 41.2869H0.00702483H0ZM9.15136 36.423H13.1437C16.0324 36.423 18.12 36.2825 19.4132 36.0013C20.7065 35.7202 21.8944 35.193 22.9698 34.4269C24.5161 33.3163 25.8234 31.8333 26.8848 29.9777C27.9461 28.1221 28.4732 25.9362 28.4732 23.427C28.4732 21.2832 28.0375 19.6737 27.1589 18.5983C26.2803 17.5229 25.1979 16.806 23.9116 16.4475C23.0049 16.2015 21.4024 16.075 19.0899 16.075H14.5283L9.15839 36.4301L9.15136 36.423Z" fill="#34548A"/>
<path d="M62.2948 27.7845H47.5064L43.9358 41.2796H36.0566L44.0623 11.0773H51.9134L48.8348 22.7379H63.6232L66.7299 11.0773H74.5809L66.6033 41.2796H58.7242L62.2948 27.7845Z" fill="#34548A"/>
<path d="M0.333008 43.1732H2.39921C2.86515 43.1732 3.22034 43.2089 3.46477 43.2802C3.79322 43.3769 4.07457 43.5488 4.30882 43.7958C4.54307 44.0427 4.7213 44.3457 4.84351 44.7047C4.96573 45.0612 5.02683 45.5017 5.02683 46.0262C5.02683 46.4871 4.96955 46.8843 4.85497 47.2178C4.71493 47.6252 4.51506 47.9549 4.25535 48.207C4.0593 48.3979 3.7945 48.5469 3.46095 48.6538C3.21143 48.7328 2.87788 48.7722 2.46032 48.7722H0.333008V43.1732ZM1.4635 44.1204V47.8289H2.30755C2.62327 47.8289 2.85115 47.811 2.99119 47.7754C3.17451 47.7296 3.32601 47.6519 3.44567 47.5424C3.56789 47.4329 3.66719 47.2534 3.74357 47.0039C3.81996 46.7519 3.85815 46.4094 3.85815 45.9765C3.85815 45.5437 3.81996 45.2114 3.74357 44.9797C3.66719 44.748 3.56025 44.5673 3.42276 44.4374C3.28527 44.3075 3.11086 44.2197 2.89953 44.1739C2.74166 44.1382 2.43231 44.1204 1.97145 44.1204H1.4635Z" fill="#3A8BA5"/>
<path d="M5.98928 48.7722V43.1732H10.1408V44.1204H7.11977V45.3617H9.93072V46.305H7.11977V47.8289H10.2477V48.7722H5.98928Z" fill="#3A8BA5"/>
<path d="M11.1911 48.7722V43.1732H12.883L13.8989 46.9925L14.9033 43.1732H16.5991V48.7722H15.5488V44.3648L14.4374 48.7722H13.3489L12.2413 44.3648V48.7722H11.1911Z" fill="#3A8BA5"/>
<path d="M22.7709 48.7722H21.5412L21.0523 47.5004H18.8142L18.3521 48.7722H17.1529L19.3336 43.1732H20.5291L22.7709 48.7722ZM20.6895 46.5571L19.918 44.4794L19.1618 46.5571H20.6895Z" fill="#3A8BA5"/>
<path d="M23.3782 48.7722V43.1732H25.7576C26.3559 43.1732 26.79 43.2242 27.0599 43.326C27.3324 43.4253 27.5501 43.6035 27.713 43.8607C27.876 44.1179 27.9575 44.4119 27.9575 44.7429C27.9575 45.1631 27.834 45.5106 27.587 45.7856C27.34 46.058 26.9708 46.2299 26.4794 46.3012C26.7238 46.4438 26.925 46.6004 27.0829 46.7709C27.2433 46.9415 27.4584 47.2445 27.7283 47.6799L28.4119 48.7722H27.0599L26.2426 47.5539C25.9524 47.1185 25.7538 46.8448 25.6468 46.7328C25.5399 46.6182 25.4266 46.5405 25.3069 46.4998C25.1872 46.4565 24.9976 46.4349 24.7378 46.4349H24.5087V48.7722H23.3782ZM24.5087 45.5412H25.3451C25.8874 45.5412 26.2261 45.5182 26.361 45.4724C26.496 45.4266 26.6016 45.3477 26.678 45.2356C26.7544 45.1236 26.7926 44.9836 26.7926 44.8155C26.7926 44.6271 26.7417 44.4756 26.6398 44.361C26.5405 44.2439 26.3992 44.1701 26.2159 44.1395C26.1242 44.1268 25.8492 44.1204 25.3909 44.1204H24.5087V45.5412Z" fill="#3A8BA5"/>
<path d="M34.0759 48.7722H32.8461L32.3572 47.5004H30.1191L29.657 48.7722H28.4578L30.6385 43.1732H31.834L34.0759 48.7722ZM31.9944 46.5571L31.2229 44.4794L30.4667 46.5571H31.9944Z" fill="#3A8BA5"/>
<path d="M35.4317 48.7722V46.4158L33.3808 43.1732H34.706L36.0237 45.3884L37.3146 43.1732H38.6169L36.5583 46.4234V48.7722H35.4317Z" fill="#3A8BA5"/>
<path d="M41.214 48.7722V43.1732H42.3445V45.3769H44.5596V43.1732H45.6901V48.7722H44.5596V46.3241H42.3445V48.7722H41.214Z" fill="#3A8BA5"/>
<path d="M51.9116 48.7722H50.6818L50.193 47.5004H47.9549L47.4928 48.7722H46.2935L48.4743 43.1732H49.6697L51.9116 48.7722ZM49.8301 46.5571L49.0587 44.4794L48.3025 46.5571H49.8301Z" fill="#3A8BA5"/>
<path d="M52.5189 48.7722V43.1732H54.8983C55.4966 43.1732 55.9307 43.2242 56.2006 43.326C56.473 43.4253 56.6907 43.6035 56.8537 43.8607C57.0167 44.1179 57.0981 44.4119 57.0981 44.7429C57.0981 45.1631 56.9746 45.5106 56.7277 45.7856C56.4807 46.058 56.1115 46.2299 55.6201 46.3012C55.8645 46.4438 56.0657 46.6004 56.2235 46.7709C56.3839 46.9415 56.5991 47.2445 56.869 47.6799L57.5526 48.7722H56.2006L55.3833 47.5539C55.093 47.1185 54.8944 46.8448 54.7875 46.7328C54.6806 46.6182 54.5673 46.5405 54.4476 46.4998C54.3279 46.4565 54.1382 46.4349 53.8785 46.4349H53.6494V48.7722H52.5189ZM53.6494 45.5412H54.4858C55.0281 45.5412 55.3667 45.5182 55.5017 45.4724C55.6366 45.4266 55.7423 45.3477 55.8187 45.2356C55.8951 45.1236 55.9333 44.9836 55.9333 44.8155C55.9333 44.6271 55.8823 44.4756 55.7805 44.361C55.6812 44.2439 55.5399 44.1701 55.3566 44.1395C55.2649 44.1268 54.9899 44.1204 54.5316 44.1204H53.6494V45.5412Z" fill="#3A8BA5"/>
<path d="M59.4508 48.7722L57.4495 43.1732H58.6755L60.0924 47.3171L61.4635 43.1732H62.6627L60.6576 48.7722H59.4508Z" fill="#3A8BA5"/>
<path d="M63.2394 48.7722V43.1732H67.3909V44.1204H64.3699V45.3617H67.1809V46.305H64.3699V47.8289H67.4979V48.7722H63.2394Z" fill="#3A8BA5"/>
<path d="M68.1701 46.9505L69.27 46.8435C69.3362 47.2127 69.4699 47.4839 69.671 47.657C69.8747 47.8301 70.1484 47.9167 70.4921 47.9167C70.8562 47.9167 71.13 47.8403 71.3133 47.6876C71.4991 47.5322 71.5921 47.3515 71.5921 47.1452C71.5921 47.0128 71.5526 46.9008 71.4737 46.8091C71.3973 46.7149 71.2624 46.6335 71.0688 46.5647C70.9364 46.5189 70.6347 46.4374 70.1637 46.3203C69.5577 46.1701 69.1325 45.9855 68.8881 45.7665C68.5443 45.4584 68.3725 45.0829 68.3725 44.6398C68.3725 44.3547 68.4527 44.0886 68.6131 43.8416C68.776 43.5921 69.009 43.4024 69.312 43.2725C69.6175 43.1427 69.9855 43.0778 70.4158 43.0778C71.1185 43.0778 71.6468 43.2318 72.0007 43.5399C72.3572 43.848 72.5443 44.2592 72.5622 44.7735L71.4317 44.8231C71.3833 44.5354 71.2789 44.3292 71.1185 44.2044C70.9606 44.0771 70.7226 44.0135 70.4043 44.0135C70.0759 44.0135 69.8187 44.0809 69.6328 44.2159C69.5132 44.3025 69.4533 44.4183 69.4533 44.5634C69.4533 44.6958 69.5093 44.8091 69.6214 44.9033C69.7639 45.023 70.1102 45.1478 70.6602 45.2776C71.2102 45.4075 71.6163 45.5424 71.8785 45.6825C72.1433 45.82 72.3496 46.0096 72.4972 46.2515C72.6475 46.4909 72.7226 46.7875 72.7226 47.1414C72.7226 47.4622 72.6335 47.7627 72.4552 48.0427C72.277 48.3228 72.0249 48.5316 71.699 48.6691C71.3731 48.804 70.967 48.8715 70.4807 48.8715C69.7729 48.8715 69.2293 48.7086 68.8499 48.3827C68.4705 48.0542 68.2439 47.5768 68.1701 46.9505Z" fill="#3A8BA5"/>
<path d="M74.9339 48.7722V44.1204H73.2725V43.1732H77.7219V44.1204H76.0644V48.7722H74.9339Z" fill="#3A8BA5"/>
<path d="M78.4209 48.7722V43.1732H79.5513V48.7722H78.4209Z" fill="#3A8BA5"/>
<path d="M80.6436 48.7722V43.1732H81.7436L84.0351 46.9123V43.1732H85.0854V48.7722H83.9511L81.6939 45.121V48.7722H80.6436Z" fill="#3A8BA5"/>
<path d="M88.8894 46.7137V45.7703H91.326V48.0007C91.0892 48.2299 90.7455 48.4323 90.2948 48.608C89.8467 48.7811 89.3922 48.8677 88.9314 48.8677C88.3457 48.8677 87.8352 48.7455 87.3998 48.5011C86.9645 48.2541 86.6373 47.9027 86.4183 47.447C86.1993 46.9886 86.0899 46.4909 86.0899 45.9536C86.0899 45.3706 86.2121 44.8524 86.4565 44.3992C86.7009 43.946 87.0587 43.5984 87.5297 43.3566C87.8887 43.1707 88.3356 43.0778 88.8703 43.0778C89.5654 43.0778 90.1077 43.2242 90.4972 43.517C90.8893 43.8072 91.1414 44.2095 91.2535 44.7238L90.1306 44.9339C90.0517 44.6589 89.9027 44.4425 89.6837 44.2846C89.4673 44.1242 89.1962 44.044 88.8703 44.044C88.3763 44.044 87.9829 44.2006 87.6901 44.5138C87.3999 44.827 87.2547 45.2916 87.2547 45.9078C87.2547 46.5723 87.4024 47.0714 87.6978 47.4049C87.9931 47.7359 88.3801 47.9014 88.8588 47.9014C89.0956 47.9014 89.3324 47.8556 89.5692 47.7639C89.8085 47.6697 90.0135 47.5564 90.1841 47.424V46.7137H88.8894Z" fill="#3A8BA5"/>
<path d="M5.06128 56.1015L4.439 56.8958C4.13396 56.747 3.84112 56.542 3.56048 56.2809C3.34329 56.4761 3.11268 56.6201 2.86865 56.7128C2.62462 56.8056 2.33422 56.8519 1.99745 56.8519C1.3288 56.8519 0.826094 56.664 0.489329 56.2882C0.228214 55.9978 0.0976562 55.6635 0.0976562 55.2852C0.0976562 54.9411 0.20015 54.6324 0.405138 54.3591C0.610125 54.0834 0.916386 53.8442 1.32392 53.6417C1.1409 53.4245 1.00302 53.2183 0.910285 53.023C0.817553 52.8254 0.771187 52.6387 0.771187 52.463C0.771187 52.1384 0.900524 51.8639 1.1592 51.6394C1.42031 51.4124 1.79124 51.299 2.27199 51.299C2.73565 51.299 3.09804 51.4173 3.35915 51.654C3.62027 51.8907 3.75083 52.1799 3.75083 52.5216C3.75083 52.7387 3.68616 52.945 3.55682 53.1402C3.42748 53.3354 3.16637 53.5563 2.77348 53.8027L3.52022 54.7874C3.60807 54.6312 3.68372 54.4275 3.74717 54.1761L4.67693 54.3884C4.5842 54.7178 4.50367 54.9594 4.43534 55.1132C4.36701 55.2645 4.2938 55.3914 4.21571 55.4939C4.33041 55.6012 4.47804 55.7196 4.65863 55.8489C4.84165 55.9758 4.97587 56.06 5.06128 56.1015ZM2.26101 53.1841L2.5392 52.9718C2.74419 52.8132 2.84669 52.6558 2.84669 52.4996C2.84669 52.3678 2.79666 52.2556 2.69661 52.1628C2.59899 52.0701 2.46599 52.0237 2.29761 52.0237C2.13411 52.0237 2.00599 52.0652 1.91326 52.1482C1.82053 52.2287 1.77416 52.3227 1.77416 52.43C1.77416 52.5569 1.85225 52.7107 2.00843 52.8913L2.26101 53.1841ZM1.85835 54.3006C1.62164 54.4201 1.44472 54.5641 1.32758 54.7325C1.21045 54.9009 1.15188 55.0729 1.15188 55.2486C1.15188 55.4707 1.22387 55.6525 1.36785 55.794C1.51427 55.9331 1.70949 56.0027 1.95353 56.0027C2.11459 56.0027 2.26955 55.971 2.41841 55.9075C2.56727 55.8441 2.72955 55.7391 2.90525 55.5927L1.85835 54.3006Z" fill="#3A8BA5"/>
<path d="M9.0256 56.7567V52.2983H7.43328V51.3905H11.6978V52.2983H10.1091V56.7567H9.0256Z" fill="#3A8BA5"/>
<path d="M12.4042 56.7567V51.3905H14.6847C15.2582 51.3905 15.6743 51.4393 15.9329 51.5369C16.1941 51.6321 16.4027 51.8029 16.5589 52.0494C16.7151 52.2958 16.7932 52.5777 16.7932 52.8949C16.7932 53.2976 16.6748 53.6307 16.4381 53.8942C16.2014 54.1554 15.8475 54.3201 15.3765 54.3884C15.6108 54.5251 15.8036 54.6751 15.9549 54.8386C16.1086 55.0021 16.3149 55.2925 16.5735 55.7098L17.2288 56.7567H15.9329L15.1496 55.589C14.8714 55.1718 14.6811 54.9094 14.5786 54.802C14.4761 54.6922 14.3675 54.6178 14.2528 54.5788C14.1381 54.5373 13.9563 54.5165 13.7074 54.5165H13.4877V56.7567H12.4042ZM13.4877 53.66H14.2894C14.8092 53.66 15.1337 53.638 15.2631 53.5941C15.3924 53.5502 15.4937 53.4745 15.5669 53.3671C15.6401 53.2598 15.6767 53.1255 15.6767 52.9645C15.6767 52.7839 15.6279 52.6387 15.5303 52.5289C15.4351 52.4166 15.2997 52.3459 15.124 52.3166C15.0361 52.3044 14.7726 52.2983 14.3333 52.2983H13.4877V53.66Z" fill="#3A8BA5"/>
<path d="M17.8108 51.3905H18.8943V54.2969C18.8943 54.7581 18.9077 55.0571 18.9345 55.1937C18.9809 55.4133 19.0907 55.5903 19.264 55.7245C19.4397 55.8563 19.6788 55.9222 19.9814 55.9222C20.2889 55.9222 20.5208 55.8599 20.6769 55.7355C20.8331 55.6086 20.9271 55.4536 20.9588 55.2706C20.9905 55.0876 21.0064 54.7837 21.0064 54.3591V51.3905H22.0899V54.209C22.0899 54.8533 22.0606 55.3084 22.002 55.5744C21.9435 55.8404 21.8349 56.0649 21.6763 56.2479C21.5201 56.431 21.3102 56.5774 21.0466 56.6872C20.7831 56.7946 20.439 56.8483 20.0144 56.8483C19.5019 56.8483 19.1127 56.7897 18.8467 56.6726C18.5831 56.553 18.3745 56.3992 18.2208 56.2113C18.067 56.021 17.9657 55.8221 17.9169 55.6147C17.8462 55.3072 17.8108 54.8533 17.8108 54.253V51.3905Z" fill="#3A8BA5"/>
<path d="M26.6692 54.7837L27.7197 55.1168C27.5587 55.7025 27.2902 56.1381 26.9144 56.4236C26.541 56.7067 26.0664 56.8483 25.4905 56.8483C24.7779 56.8483 24.1922 56.6054 23.7335 56.1198C23.2747 55.6318 23.0453 54.9655 23.0453 54.1212C23.0453 53.228 23.2759 52.535 23.7371 52.042C24.1983 51.5466 24.8048 51.299 25.5564 51.299C26.2128 51.299 26.746 51.493 27.156 51.881C27.4 52.1104 27.5831 52.4398 27.7051 52.8693L26.6326 53.1255C26.5691 52.8473 26.4361 52.6277 26.2336 52.4666C26.0335 52.3056 25.7894 52.2251 25.5015 52.2251C25.1037 52.2251 24.7804 52.3678 24.5314 52.6533C24.285 52.9389 24.1617 53.4013 24.1617 54.0407C24.1617 54.7191 24.2837 55.2023 24.5278 55.4902C24.7718 55.7782 25.0891 55.9222 25.4795 55.9222C25.7675 55.9222 26.0152 55.8306 26.2226 55.6476C26.43 55.4646 26.5789 55.1766 26.6692 54.7837Z" fill="#3A8BA5"/>
<path d="M28.6678 56.7567V51.3905H29.7513V53.7734L31.9403 51.3905H33.3972L31.3766 53.4806L33.507 56.7567H32.105L30.6298 54.2383L29.7513 55.1351V56.7567H28.6678Z" fill="#3A8BA5"/>
<path d="M34.0377 56.7567V51.3905H35.1212V56.7567H34.0377Z" fill="#3A8BA5"/>
<path d="M36.1681 56.7567V51.3905H37.2224L39.4187 54.9741V51.3905H40.4253V56.7567H39.3381L37.1748 53.2573V56.7567H36.1681Z" fill="#3A8BA5"/>
<path d="M44.0711 54.7837V53.8796H46.4065V56.0173C46.1796 56.237 45.8501 56.431 45.4182 56.5993C44.9887 56.7653 44.5531 56.8483 44.1114 56.8483C43.5501 56.8483 43.0609 56.7311 42.6436 56.4968C42.2263 56.2601 41.9127 55.9234 41.7028 55.4866C41.4929 55.0473 41.388 54.5702 41.388 54.0553C41.388 53.4965 41.5051 52.9999 41.7394 52.5655C41.9737 52.1311 42.3166 51.798 42.768 51.5662C43.1121 51.388 43.5404 51.299 44.0528 51.299C44.7191 51.299 45.2388 51.4393 45.6122 51.7199C45.988 51.9981 46.2296 52.3837 46.337 52.8766L45.2608 53.0779C45.1852 52.8144 45.0424 52.607 44.8325 52.4557C44.6251 52.3019 44.3652 52.2251 44.0528 52.2251C43.5794 52.2251 43.2024 52.3751 42.9218 52.6753C42.6436 52.9755 42.5045 53.4208 42.5045 54.0114C42.5045 54.6483 42.646 55.1266 42.9291 55.4463C43.2122 55.7635 43.5831 55.9222 44.0419 55.9222C44.2688 55.9222 44.4958 55.8782 44.7227 55.7904C44.9521 55.7001 45.1486 55.5915 45.3121 55.4646V54.7837H44.0711Z" fill="#3A8BA5"/>
<path d="M49.5253 56.7567V51.4344H50.6088V55.8526H53.3029V56.7567H49.5253Z" fill="#3A8BA5"/>
<path d="M54.1082 56.7567V51.4344H55.1917V55.8526H57.8858V56.7567H54.1082Z" fill="#3A8BA5"/>
<path d="M62.0954 54.7837L63.146 55.1168C62.9849 55.7025 62.7165 56.1381 62.3407 56.4236C61.9673 56.7067 61.4926 56.8483 60.9167 56.8483C60.2042 56.8483 59.6185 56.6054 59.1597 56.1198C58.7009 55.6318 58.4715 54.9655 58.4715 54.1212C58.4715 53.228 58.7021 52.535 59.1634 52.042C59.6246 51.5466 60.231 51.299 60.9826 51.299C61.6391 51.299 62.1723 51.493 62.5823 51.881C62.8263 52.1104 63.0093 52.4398 63.1313 52.8693L62.0588 53.1255C61.9954 52.8473 61.8624 52.6277 61.6598 52.4666C61.4597 52.3056 61.2157 52.2251 60.9277 52.2251C60.5299 52.2251 60.2066 52.3678 59.9577 52.6533C59.7112 52.9389 59.588 53.4013 59.588 54.0407C59.588 54.7191 59.71 55.2023 59.954 55.4902C60.1981 55.7782 60.5153 55.9222 60.9058 55.9222C61.1937 55.9222 61.4414 55.8306 61.6488 55.6476C61.8563 55.4646 62.0051 55.1766 62.0954 54.7837Z" fill="#3A8BA5"/>
</svg>
